<svg width="26" height="26" viewBox="0 0 26 26" fill="none" xmlns="http://www.w3.org/2000/svg">
<g clip-path="url(#clip0_165_107)">
<path d="M19.1678 13.1228C19.1648 12.1517 19.0607 11.1835 18.8572 10.2339H21.4572C21.3233 9.8378 21.1327 9.76221 20.9444 9.38889H18.4961C18.0413 7.86937 17.3936 6.12596 16.4667 4.83889C15.8744 4.58987 15.2569 4.40583 14.625 4.29C16.4667 5.53944 17.1062 7.61777 17.6872 9.38889H15.5278H13.5417V4.16723H12.4583L12.4656 9.38889H8.31278C8.89495 7.61457 9.38889 5.53944 11.3822 4.29C10.753 4.4039 10.138 4.58551 9.54778 4.83167C8.61717 6.11334 7.96464 7.87349 7.5039 9.38889H5.05556C4.86385 9.76902 4.6564 9.83022 4.52112 10.2339L7.22222 10.1111C7.01876 11.0607 6.83525 12.1517 6.83223 13.1228C6.83423 14.185 6.98423 15.5759 7.22222 16.6111H4.69444C4.84386 17.0159 4.9647 17.0772 5.17112 17.4561H7.5039C7.94605 18.8397 8.60153 20.1458 9.44667 21.3272C10.0519 21.5868 10.1858 21.5471 10.8333 21.6667C9.65461 20.3809 8.89255 19.1012 8.31278 17.4561H12.4656V22.035H13.5489V17.4561H17.6872C17.1055 19.1019 16.3481 20.3817 15.1667 21.6667C15.8173 21.5429 15.9464 21.5778 16.5533 21.3128C17.3971 20.1358 18.0526 18.8347 18.4961 17.4561H20.8072C21.0127 17.0842 21.1552 17.0085 21.3056 16.6111H18.8572C19.1066 15.5699 19.1579 14.1934 19.1678 13.1228ZM12.4583 16.6111H7.94444C7.43598 14.6234 7.47868 12.232 7.94444 10.2339L12.4583 10.2122V16.6111ZM18.0556 16.6111H13.5489L13.5417 10.2339L18.0556 10.1111C18.263 11.0599 18.4225 12.0288 18.4167 13C18.4225 14.0631 18.3061 15.5779 18.0556 16.6111Z" fill="black"/>
<path d="M13 2.16669C10.7145 2.16669 8.76143 2.7025 6.86112 3.97224C4.96082 5.24198 3.76351 6.55519 2.8889 8.6667C2.01429 10.7782 1.8782 12.9251 2.32407 15.1667C2.76995 17.4083 3.80059 19.3284 5.41666 20.9445C7.03274 22.5605 8.78587 23.3875 11.0274 23.8334C13.269 24.2792 15.2218 23.9857 17.3333 23.1111C19.5 22.0278 20.1496 21.4071 22.0278 19.5C23.2975 17.5997 23.8333 15.2855 23.8333 13C23.8333 9.9353 22.7504 7.22267 20.5833 5.05558C18.4162 2.8885 16.0647 2.16669 13 2.16669ZM13 23.1111C11.0002 23.1111 9.04533 22.5181 7.38257 21.4071C5.71981 20.2961 4.42384 18.7169 3.65855 16.8694C2.89327 15.0218 2.69303 12.9888 3.08317 11.0274C3.47331 9.06608 4.4363 7.26445 5.85037 5.85039C7.26443 4.43632 9.06606 3.47333 11.0274 3.08319C12.9888 2.69305 15.0218 2.89329 16.8694 3.65857C18.7169 4.42386 20.2961 5.71982 21.4071 7.38259C22.5181 9.04535 23.1111 11.0002 23.1111 13C23.1111 15.6817 22.0458 18.2535 20.1496 20.1497C18.2534 22.0459 15.6816 23.1111 13 23.1111Z" fill="black"/>
</g>
<defs>
<clipPath id="clip0_165_107">
<rect width="26" height="26" fill="white"/>
</clipPath>
</defs>
</svg>
