<svg width="70" height="70" viewBox="0 0 70 70" fill="none" xmlns="http://www.w3.org/2000/svg">
<mask id="path-1-inside-1_256_653" fill="white">
<path d="M61.6226 34.0424L54.4517 23.798C53.7988 22.8656 52.7297 22.3092 51.5915 22.3092H43.1655V18.8475C43.1655 17.4926 42.0636 16.3906 40.7087 16.3906H10.3523C8.99746 16.3906 7.89551 17.4926 7.89551 18.8475V46.4182C7.89551 47.773 8.99746 48.875 10.3523 48.875H15.4813C15.8942 51.5526 18.2137 53.6096 21.0055 53.6096C23.7966 53.6096 26.1167 51.5526 26.5289 48.875H45.0734C45.4856 51.5526 47.8058 53.6096 50.5969 53.6096C53.3887 53.6096 55.7081 51.5526 56.121 48.875H59.6477C61.0025 48.875 62.1045 47.773 62.1045 46.4182V35.5716C62.1045 35.0213 61.9377 34.4929 61.6226 34.0424ZM21.0055 51.9006C18.8658 51.9006 17.1254 50.1602 17.1254 48.0205C17.1254 45.8809 18.8658 44.1404 21.0055 44.1404C23.1451 44.1404 24.8855 45.8809 24.8855 48.0205C24.8855 50.1602 23.1451 51.9006 21.0055 51.9006ZM41.4565 47.166H26.5296C26.5159 47.0785 26.5002 46.9917 26.4824 46.9049C26.477 46.8796 26.4708 46.8543 26.4653 46.8283C26.4517 46.7675 26.4387 46.7066 26.4229 46.6465C26.4147 46.6144 26.4059 46.5822 26.397 46.5508C26.3826 46.4975 26.3683 46.4448 26.3519 46.3922C26.3416 46.358 26.3307 46.3245 26.3197 46.291C26.3033 46.2411 26.2869 46.1919 26.2691 46.1427C26.2568 46.1085 26.2438 46.0743 26.2309 46.0408C26.2131 45.993 26.1939 45.9451 26.1748 45.8979C26.1611 45.8645 26.1468 45.831 26.1324 45.7975C26.1119 45.7503 26.0907 45.7038 26.0688 45.6573C26.0538 45.6252 26.0388 45.5931 26.023 45.5609C25.9998 45.5138 25.9759 45.468 25.9513 45.4222C25.9355 45.3914 25.9198 45.3606 25.9027 45.3306C25.8768 45.2827 25.8487 45.2355 25.8214 45.1884C25.805 45.1617 25.7899 45.1344 25.7735 45.1077C25.7407 45.0537 25.7059 45.0011 25.6717 44.9491C25.6587 44.9293 25.6471 44.9102 25.6341 44.891C25.5855 44.8192 25.5356 44.7488 25.4837 44.6798C25.4789 44.6729 25.4734 44.6668 25.468 44.66C25.4215 44.5984 25.3743 44.5376 25.3251 44.4781C25.3073 44.4563 25.2889 44.4357 25.2711 44.4145C25.2335 44.3701 25.1959 44.3264 25.1576 44.2833C25.1357 44.2594 25.1132 44.2354 25.0906 44.2115C25.0544 44.1726 25.0182 44.1343 24.9806 44.0967C24.9566 44.0721 24.9313 44.0475 24.9067 44.0235C24.8705 43.988 24.8336 43.9524 24.796 43.9176C24.77 43.8937 24.7434 43.8697 24.7167 43.8465C24.6791 43.8123 24.6408 43.7795 24.6019 43.7467C24.5752 43.7241 24.5472 43.7009 24.5198 43.679C24.4802 43.6469 24.4405 43.6154 24.4002 43.5847C24.3722 43.5628 24.3441 43.5416 24.3161 43.5204C24.2737 43.4896 24.2307 43.4596 24.1883 43.4295C24.1603 43.4104 24.1329 43.3912 24.1049 43.3721C24.0584 43.3413 24.0112 43.3112 23.9634 43.2812C23.9381 43.2654 23.9128 43.249 23.8875 43.2333C23.828 43.1978 23.7679 43.1636 23.707 43.1294C23.6927 43.1219 23.6783 43.113 23.6633 43.1048C23.5874 43.0638 23.5108 43.0241 23.4329 42.9865C23.4124 42.977 23.3919 42.9681 23.3721 42.9585C23.314 42.9312 23.2559 42.9045 23.1964 42.8792C23.167 42.8662 23.1369 42.8553 23.1075 42.843C23.0562 42.8225 23.0057 42.802 22.9544 42.7821C22.9209 42.7698 22.8874 42.7589 22.8539 42.7473C22.8054 42.7295 22.7562 42.7124 22.7063 42.6967C22.6714 42.6857 22.6358 42.6748 22.6003 42.6645C22.5518 42.6502 22.5025 42.6358 22.4526 42.6222C22.4164 42.6126 22.3802 42.6037 22.3439 42.5941C22.294 42.5818 22.2441 42.5709 22.1942 42.56C22.1573 42.5518 22.1204 42.5436 22.0835 42.5367C22.0322 42.5265 21.981 42.5176 21.929 42.5087C21.8921 42.5025 21.8559 42.4964 21.8189 42.4909C21.7649 42.4834 21.7109 42.4766 21.6562 42.4704C21.6214 42.4663 21.5865 42.4615 21.551 42.4581C21.4908 42.4526 21.4307 42.4485 21.3698 42.4444C21.3397 42.4424 21.3097 42.4396 21.2796 42.4383C21.1887 42.4335 21.0978 42.4314 21.0055 42.4314C20.9132 42.4314 20.8216 42.4335 20.7307 42.4383C20.7006 42.4396 20.6712 42.4424 20.6411 42.4444C20.5803 42.4485 20.5194 42.4526 20.4593 42.4581C20.4244 42.4615 20.3896 42.4663 20.354 42.4704C20.3 42.4766 20.2453 42.4834 20.192 42.4909C20.1551 42.4964 20.1182 42.5025 20.0819 42.5087C20.03 42.5176 19.9787 42.5265 19.9274 42.5367C19.8905 42.5436 19.8536 42.5518 19.8167 42.56C19.7668 42.5709 19.7169 42.5818 19.667 42.5941C19.6308 42.6037 19.5938 42.6126 19.5576 42.6222C19.5084 42.6358 19.4592 42.6502 19.41 42.6645C19.3751 42.6748 19.3396 42.6857 19.3047 42.6967C19.2548 42.7124 19.2056 42.7295 19.1563 42.7473C19.1229 42.7589 19.09 42.7698 19.0565 42.7821C19.0053 42.802 18.954 42.8225 18.9027 42.843C18.8733 42.8553 18.8439 42.8662 18.8146 42.8792C18.7551 42.9045 18.6963 42.9318 18.6382 42.9592C18.6184 42.9681 18.5979 42.977 18.578 42.9865C18.5001 43.0241 18.4229 43.0638 18.347 43.1048C18.3326 43.113 18.3189 43.1212 18.3046 43.1294C18.2437 43.1629 18.1829 43.1978 18.1234 43.234C18.0975 43.249 18.0729 43.2654 18.0476 43.2812C17.9997 43.3112 17.9525 43.3413 17.9054 43.3721C17.878 43.3912 17.8507 43.4104 17.8233 43.4295C17.7803 43.4596 17.7372 43.4896 17.6948 43.5211C17.6668 43.5416 17.6388 43.5628 17.6114 43.584C17.5704 43.6154 17.5308 43.6469 17.4911 43.679C17.4631 43.7009 17.4357 43.7241 17.4091 43.7467C17.3701 43.7795 17.3318 43.813 17.2936 43.8465C17.2676 43.8697 17.2409 43.8937 17.2149 43.9176C17.1773 43.9524 17.1404 43.988 17.1035 44.0235C17.0789 44.0481 17.0543 44.0721 17.0304 44.0967C16.9928 44.1343 16.9565 44.1726 16.9203 44.2115C16.8978 44.2354 16.8752 44.2594 16.8533 44.2833C16.815 44.3264 16.7774 44.3701 16.7398 44.4145C16.7221 44.4357 16.7036 44.4563 16.6858 44.4781C16.6366 44.5376 16.5895 44.5984 16.543 44.66C16.5375 44.6668 16.532 44.6729 16.5272 44.6798C16.4753 44.7488 16.4254 44.8192 16.3769 44.891C16.3639 44.9102 16.3522 44.9293 16.3393 44.9491C16.3044 45.0011 16.2702 45.0537 16.2374 45.1077C16.221 45.1344 16.206 45.1617 16.1896 45.1884C16.1622 45.2355 16.1342 45.2827 16.1075 45.3306C16.0911 45.3606 16.0754 45.3914 16.059 45.4222C16.0351 45.468 16.0111 45.5138 15.9879 45.5609C15.9722 45.5931 15.9571 45.6252 15.9421 45.658C15.9202 45.7038 15.899 45.7503 15.8785 45.7975C15.8642 45.831 15.8498 45.8645 15.8361 45.8979C15.8163 45.9451 15.7979 45.993 15.7794 46.0401C15.7671 46.0743 15.7541 46.1085 15.7418 46.1427C15.724 46.1919 15.7076 46.2411 15.6919 46.2903C15.6803 46.3245 15.6693 46.358 15.6591 46.3922C15.6427 46.4448 15.6283 46.4968 15.614 46.5501C15.6051 46.5822 15.5955 46.6144 15.5873 46.6465C15.5723 46.706 15.5593 46.7661 15.5463 46.8263C15.5401 46.8529 15.5333 46.8789 15.5285 46.9056C15.5107 46.9917 15.495 47.0785 15.4813 47.166H10.3523C9.94014 47.166 9.60449 46.8304 9.60449 46.4182V18.8475C9.60449 18.4353 9.94014 18.0996 10.3523 18.0996H40.7087C41.1216 18.0996 41.4565 18.4353 41.4565 18.8475V47.166ZM43.1655 24.0182H51.5915C52.1726 24.0182 52.7181 24.3019 53.0517 24.7783L59.6087 34.1456H43.1655V24.0182ZM50.5969 51.9006C48.4572 51.9006 46.7168 50.1602 46.7168 48.0205C46.7168 45.8809 48.4572 44.1404 50.5969 44.1404C52.7365 44.1404 54.477 45.8809 54.477 48.0205C54.477 50.1602 52.7365 51.9006 50.5969 51.9006ZM60.3955 41.2475H58.8827V42.9564H60.3955V46.4182C60.3955 46.8304 60.0599 47.166 59.6477 47.166H56.121C56.1073 47.0785 56.0916 46.9917 56.0745 46.9056C56.0684 46.8782 56.0615 46.8509 56.0561 46.8235C56.0431 46.7647 56.0301 46.7053 56.015 46.6472C56.0068 46.6137 55.9973 46.5815 55.9884 46.5487C55.974 46.4961 55.9597 46.4441 55.9439 46.3929C55.933 46.358 55.9221 46.3238 55.9104 46.2896C55.8947 46.2404 55.8783 46.1919 55.8612 46.1434C55.8482 46.1085 55.8353 46.0743 55.8223 46.0395C55.8045 45.9923 55.786 45.9451 55.7669 45.8986C55.7525 45.8645 55.7382 45.8303 55.7238 45.7968C55.7033 45.7503 55.6821 45.7045 55.6609 45.6587C55.6452 45.6259 55.6302 45.5931 55.6145 45.5603C55.5912 45.5138 55.5673 45.468 55.5434 45.4228C55.527 45.3921 55.5112 45.3606 55.4941 45.3306C55.4682 45.2827 55.4408 45.2362 55.4135 45.1891C55.3971 45.1617 55.3813 45.1344 55.3649 45.107C55.3321 45.0544 55.2986 45.0024 55.2645 44.9505C55.2508 44.9307 55.2385 44.9102 55.2255 44.8903C55.177 44.8192 55.127 44.7488 55.0758 44.6798C55.0696 44.6723 55.0635 44.6654 55.058 44.6572C55.0122 44.5971 54.965 44.5369 54.9165 44.4781C54.8987 44.4563 54.8803 44.4351 54.8618 44.4132C54.8249 44.3694 54.7873 44.3264 54.749 44.2833C54.7271 44.2587 54.7039 44.2354 54.682 44.2108C54.6458 44.1726 54.6096 44.1343 54.5727 44.0967C54.548 44.0721 54.5228 44.0475 54.4981 44.0235C54.4619 43.988 54.425 43.9524 54.3874 43.9176C54.3614 43.8937 54.3348 43.8697 54.3081 43.8458C54.2705 43.8123 54.2322 43.7795 54.1939 43.7474C54.1666 43.7241 54.1393 43.7009 54.1112 43.6783C54.0716 43.6469 54.0319 43.6154 53.9916 43.5847C53.9636 43.5628 53.9355 43.5416 53.9075 43.5204C53.8651 43.4896 53.8228 43.4596 53.7797 43.4302C53.7523 43.4104 53.725 43.3912 53.697 43.3721C53.6505 43.3413 53.6026 43.3112 53.5555 43.2818C53.5302 43.2654 53.5049 43.249 53.4789 43.2333C53.4201 43.1978 53.36 43.1636 53.2998 43.1301C53.2848 43.1219 53.2704 43.113 53.2554 43.1048C53.1795 43.0638 53.1022 43.0241 53.0243 42.9865C53.0038 42.977 52.9833 42.9681 52.9635 42.9585C52.9054 42.9312 52.8473 42.9045 52.7878 42.8792C52.7584 42.8662 52.7283 42.8553 52.6989 42.843C52.6483 42.8225 52.5971 42.802 52.5458 42.7821C52.513 42.7698 52.4795 42.7589 52.446 42.7466C52.3968 42.7295 52.3476 42.7124 52.2977 42.6967C52.2628 42.6857 52.2272 42.6748 52.1924 42.6645C52.1432 42.6495 52.0939 42.6358 52.0447 42.6222C52.0085 42.6126 51.9716 42.6037 51.9354 42.5941C51.8854 42.5818 51.8355 42.5709 51.7856 42.56C51.7487 42.5518 51.7118 42.5436 51.6749 42.5367C51.6236 42.5265 51.5724 42.5176 51.5204 42.5087C51.4842 42.5025 51.4473 42.4964 51.4104 42.4909C51.357 42.4834 51.3023 42.4766 51.2483 42.4704C51.2128 42.4663 51.1779 42.4615 51.1431 42.4581C51.0829 42.4526 51.0221 42.4485 50.9612 42.4444C50.9312 42.4424 50.9018 42.4396 50.8717 42.4383C50.7808 42.4335 50.6892 42.4314 50.5969 42.4314C50.5053 42.4314 50.4137 42.4335 50.3228 42.4383C50.2927 42.4396 50.2626 42.4424 50.2325 42.4444C50.1717 42.4485 50.1115 42.4526 50.0514 42.4581C50.0158 42.4615 49.981 42.4663 49.9461 42.4704C49.8914 42.4766 49.8374 42.4834 49.7834 42.4909C49.7465 42.4964 49.7103 42.5025 49.6733 42.5087C49.6221 42.5176 49.5701 42.5265 49.5195 42.5367C49.4819 42.5436 49.445 42.5518 49.4081 42.56C49.3582 42.5709 49.3083 42.5818 49.2591 42.5941C49.2222 42.6037 49.1859 42.6126 49.1497 42.6222C49.0998 42.6358 49.0506 42.6495 49.0021 42.6645C48.9665 42.6748 48.931 42.6857 48.8961 42.6967C48.8462 42.7124 48.7977 42.7295 48.7484 42.7466C48.7149 42.7589 48.6814 42.7698 48.6479 42.7821C48.5967 42.802 48.5461 42.8225 48.4955 42.843C48.4654 42.8553 48.4354 42.8662 48.406 42.8792C48.3472 42.9045 48.2891 42.9312 48.231 42.9585C48.2104 42.9681 48.1899 42.977 48.1694 42.9865C48.0915 43.0241 48.0149 43.0638 47.9391 43.1048C47.924 43.113 47.9097 43.1219 47.8946 43.1301C47.8338 43.1636 47.7743 43.1978 47.7148 43.2333C47.6896 43.249 47.6643 43.2654 47.639 43.2818C47.5911 43.3112 47.5439 43.3413 47.4975 43.3721C47.4694 43.3912 47.4421 43.4104 47.4141 43.4295C47.3717 43.4596 47.3286 43.4896 47.2869 43.5204C47.2582 43.5416 47.2302 43.5628 47.2021 43.5847C47.1618 43.6154 47.1222 43.6469 47.0825 43.6783C47.0552 43.7009 47.0271 43.7241 46.9998 43.7474C46.9615 43.7795 46.9232 43.8123 46.8856 43.8458C46.859 43.8697 46.833 43.8937 46.8064 43.9176C46.7688 43.9524 46.7325 43.988 46.6956 44.0235C46.671 44.0475 46.6457 44.0721 46.6218 44.0967C46.5842 44.1343 46.548 44.1726 46.5117 44.2115C46.4898 44.2354 46.4673 44.2594 46.4447 44.2833C46.4064 44.3264 46.3689 44.3701 46.3319 44.4139C46.3135 44.4357 46.295 44.4563 46.2772 44.4781C46.2287 44.5376 46.1815 44.5978 46.1351 44.6593C46.1296 44.6661 46.1241 44.6729 46.1187 44.6798C46.0667 44.7488 46.0168 44.8192 45.9683 44.891C45.9553 44.9102 45.9437 44.9293 45.9307 44.9491C45.8965 45.0011 45.8623 45.0537 45.8288 45.1077C45.8124 45.1344 45.7974 45.1617 45.7816 45.1884C45.7536 45.2355 45.7256 45.2827 45.6996 45.3306C45.6825 45.3606 45.6668 45.3914 45.6511 45.4222C45.6265 45.468 45.6025 45.5138 45.5793 45.5609C45.5636 45.5931 45.5485 45.6252 45.5335 45.6573C45.5116 45.7038 45.4904 45.7503 45.4699 45.7975C45.4556 45.831 45.4412 45.8645 45.4275 45.8979C45.4084 45.9451 45.3893 45.993 45.3715 46.0408C45.3585 46.0743 45.3455 46.1085 45.3332 46.1427C45.3154 46.1919 45.299 46.2411 45.2833 46.291C45.2724 46.3245 45.2607 46.358 45.2505 46.3922C45.2348 46.4448 45.2197 46.4975 45.2054 46.5508C45.1965 46.5822 45.1876 46.6144 45.1794 46.6465C45.1637 46.7066 45.1507 46.7675 45.137 46.8283C45.1315 46.8543 45.1254 46.8796 45.1199 46.9049C45.1021 46.9917 45.0864 47.0785 45.0728 47.166H43.1655V35.8546H60.3955V41.2475Z"/>
</mask>
<path d="M61.6226 34.0424L54.4517 23.798C53.7988 22.8656 52.7297 22.3092 51.5915 22.3092H43.1655V18.8475C43.1655 17.4926 42.0636 16.3906 40.7087 16.3906H10.3523C8.99746 16.3906 7.89551 17.4926 7.89551 18.8475V46.4182C7.89551 47.773 8.99746 48.875 10.3523 48.875H15.4813C15.8942 51.5526 18.2137 53.6096 21.0055 53.6096C23.7966 53.6096 26.1167 51.5526 26.5289 48.875H45.0734C45.4856 51.5526 47.8058 53.6096 50.5969 53.6096C53.3887 53.6096 55.7081 51.5526 56.121 48.875H59.6477C61.0025 48.875 62.1045 47.773 62.1045 46.4182V35.5716C62.1045 35.0213 61.9377 34.4929 61.6226 34.0424ZM21.0055 51.9006C18.8658 51.9006 17.1254 50.1602 17.1254 48.0205C17.1254 45.8809 18.8658 44.1404 21.0055 44.1404C23.1451 44.1404 24.8855 45.8809 24.8855 48.0205C24.8855 50.1602 23.1451 51.9006 21.0055 51.9006ZM41.4565 47.166H26.5296C26.5159 47.0785 26.5002 46.9917 26.4824 46.9049C26.477 46.8796 26.4708 46.8543 26.4653 46.8283C26.4517 46.7675 26.4387 46.7066 26.4229 46.6465C26.4147 46.6144 26.4059 46.5822 26.397 46.5508C26.3826 46.4975 26.3683 46.4448 26.3519 46.3922C26.3416 46.358 26.3307 46.3245 26.3197 46.291C26.3033 46.2411 26.2869 46.1919 26.2691 46.1427C26.2568 46.1085 26.2438 46.0743 26.2309 46.0408C26.2131 45.993 26.1939 45.9451 26.1748 45.8979C26.1611 45.8645 26.1468 45.831 26.1324 45.7975C26.1119 45.7503 26.0907 45.7038 26.0688 45.6573C26.0538 45.6252 26.0388 45.5931 26.023 45.5609C25.9998 45.5138 25.9759 45.468 25.9513 45.4222C25.9355 45.3914 25.9198 45.3606 25.9027 45.3306C25.8768 45.2827 25.8487 45.2355 25.8214 45.1884C25.805 45.1617 25.7899 45.1344 25.7735 45.1077C25.7407 45.0537 25.7059 45.0011 25.6717 44.9491C25.6587 44.9293 25.6471 44.9102 25.6341 44.891C25.5855 44.8192 25.5356 44.7488 25.4837 44.6798C25.4789 44.6729 25.4734 44.6668 25.468 44.66C25.4215 44.5984 25.3743 44.5376 25.3251 44.4781C25.3073 44.4563 25.2889 44.4357 25.2711 44.4145C25.2335 44.3701 25.1959 44.3264 25.1576 44.2833C25.1357 44.2594 25.1132 44.2354 25.0906 44.2115C25.0544 44.1726 25.0182 44.1343 24.9806 44.0967C24.9566 44.0721 24.9313 44.0475 24.9067 44.0235C24.8705 43.988 24.8336 43.9524 24.796 43.9176C24.77 43.8937 24.7434 43.8697 24.7167 43.8465C24.6791 43.8123 24.6408 43.7795 24.6019 43.7467C24.5752 43.7241 24.5472 43.7009 24.5198 43.679C24.4802 43.6469 24.4405 43.6154 24.4002 43.5847C24.3722 43.5628 24.3441 43.5416 24.3161 43.5204C24.2737 43.4896 24.2307 43.4596 24.1883 43.4295C24.1603 43.4104 24.1329 43.3912 24.1049 43.3721C24.0584 43.3413 24.0112 43.3112 23.9634 43.2812C23.9381 43.2654 23.9128 43.249 23.8875 43.2333C23.828 43.1978 23.7679 43.1636 23.707 43.1294C23.6927 43.1219 23.6783 43.113 23.6633 43.1048C23.5874 43.0638 23.5108 43.0241 23.4329 42.9865C23.4124 42.977 23.3919 42.9681 23.3721 42.9585C23.314 42.9312 23.2559 42.9045 23.1964 42.8792C23.167 42.8662 23.1369 42.8553 23.1075 42.843C23.0562 42.8225 23.0057 42.802 22.9544 42.7821C22.9209 42.7698 22.8874 42.7589 22.8539 42.7473C22.8054 42.7295 22.7562 42.7124 22.7063 42.6967C22.6714 42.6857 22.6358 42.6748 22.6003 42.6645C22.5518 42.6502 22.5025 42.6358 22.4526 42.6222C22.4164 42.6126 22.3802 42.6037 22.3439 42.5941C22.294 42.5818 22.2441 42.5709 22.1942 42.56C22.1573 42.5518 22.1204 42.5436 22.0835 42.5367C22.0322 42.5265 21.981 42.5176 21.929 42.5087C21.8921 42.5025 21.8559 42.4964 21.8189 42.4909C21.7649 42.4834 21.7109 42.4766 21.6562 42.4704C21.6214 42.4663 21.5865 42.4615 21.551 42.4581C21.4908 42.4526 21.4307 42.4485 21.3698 42.4444C21.3397 42.4424 21.3097 42.4396 21.2796 42.4383C21.1887 42.4335 21.0978 42.4314 21.0055 42.4314C20.9132 42.4314 20.8216 42.4335 20.7307 42.4383C20.7006 42.4396 20.6712 42.4424 20.6411 42.4444C20.5803 42.4485 20.5194 42.4526 20.4593 42.4581C20.4244 42.4615 20.3896 42.4663 20.354 42.4704C20.3 42.4766 20.2453 42.4834 20.192 42.4909C20.1551 42.4964 20.1182 42.5025 20.0819 42.5087C20.03 42.5176 19.9787 42.5265 19.9274 42.5367C19.8905 42.5436 19.8536 42.5518 19.8167 42.56C19.7668 42.5709 19.7169 42.5818 19.667 42.5941C19.6308 42.6037 19.5938 42.6126 19.5576 42.6222C19.5084 42.6358 19.4592 42.6502 19.41 42.6645C19.3751 42.6748 19.3396 42.6857 19.3047 42.6967C19.2548 42.7124 19.2056 42.7295 19.1563 42.7473C19.1229 42.7589 19.09 42.7698 19.0565 42.7821C19.0053 42.802 18.954 42.8225 18.9027 42.843C18.8733 42.8553 18.8439 42.8662 18.8146 42.8792C18.7551 42.9045 18.6963 42.9318 18.6382 42.9592C18.6184 42.9681 18.5979 42.977 18.578 42.9865C18.5001 43.0241 18.4229 43.0638 18.347 43.1048C18.3326 43.113 18.3189 43.1212 18.3046 43.1294C18.2437 43.1629 18.1829 43.1978 18.1234 43.234C18.0975 43.249 18.0729 43.2654 18.0476 43.2812C17.9997 43.3112 17.9525 43.3413 17.9054 43.3721C17.878 43.3912 17.8507 43.4104 17.8233 43.4295C17.7803 43.4596 17.7372 43.4896 17.6948 43.5211C17.6668 43.5416 17.6388 43.5628 17.6114 43.584C17.5704 43.6154 17.5308 43.6469 17.4911 43.679C17.4631 43.7009 17.4357 43.7241 17.4091 43.7467C17.3701 43.7795 17.3318 43.813 17.2936 43.8465C17.2676 43.8697 17.2409 43.8937 17.2149 43.9176C17.1773 43.9524 17.1404 43.988 17.1035 44.0235C17.0789 44.0481 17.0543 44.0721 17.0304 44.0967C16.9928 44.1343 16.9565 44.1726 16.9203 44.2115C16.8978 44.2354 16.8752 44.2594 16.8533 44.2833C16.815 44.3264 16.7774 44.3701 16.7398 44.4145C16.7221 44.4357 16.7036 44.4563 16.6858 44.4781C16.6366 44.5376 16.5895 44.5984 16.543 44.66C16.5375 44.6668 16.532 44.6729 16.5272 44.6798C16.4753 44.7488 16.4254 44.8192 16.3769 44.891C16.3639 44.9102 16.3522 44.9293 16.3393 44.9491C16.3044 45.0011 16.2702 45.0537 16.2374 45.1077C16.221 45.1344 16.206 45.1617 16.1896 45.1884C16.1622 45.2355 16.1342 45.2827 16.1075 45.3306C16.0911 45.3606 16.0754 45.3914 16.059 45.4222C16.0351 45.468 16.0111 45.5138 15.9879 45.5609C15.9722 45.5931 15.9571 45.6252 15.9421 45.658C15.9202 45.7038 15.899 45.7503 15.8785 45.7975C15.8642 45.831 15.8498 45.8645 15.8361 45.8979C15.8163 45.9451 15.7979 45.993 15.7794 46.0401C15.7671 46.0743 15.7541 46.1085 15.7418 46.1427C15.724 46.1919 15.7076 46.2411 15.6919 46.2903C15.6803 46.3245 15.6693 46.358 15.6591 46.3922C15.6427 46.4448 15.6283 46.4968 15.614 46.5501C15.6051 46.5822 15.5955 46.6144 15.5873 46.6465C15.5723 46.706 15.5593 46.7661 15.5463 46.8263C15.5401 46.8529 15.5333 46.8789 15.5285 46.9056C15.5107 46.9917 15.495 47.0785 15.4813 47.166H10.3523C9.94014 47.166 9.60449 46.8304 9.60449 46.4182V18.8475C9.60449 18.4353 9.94014 18.0996 10.3523 18.0996H40.7087C41.1216 18.0996 41.4565 18.4353 41.4565 18.8475V47.166ZM43.1655 24.0182H51.5915C52.1726 24.0182 52.7181 24.3019 53.0517 24.7783L59.6087 34.1456H43.1655V24.0182ZM50.5969 51.9006C48.4572 51.9006 46.7168 50.1602 46.7168 48.0205C46.7168 45.8809 48.4572 44.1404 50.5969 44.1404C52.7365 44.1404 54.477 45.8809 54.477 48.0205C54.477 50.1602 52.7365 51.9006 50.5969 51.9006ZM60.3955 41.2475H58.8827V42.9564H60.3955V46.4182C60.3955 46.8304 60.0599 47.166 59.6477 47.166H56.121C56.1073 47.0785 56.0916 46.9917 56.0745 46.9056C56.0684 46.8782 56.0615 46.8509 56.0561 46.8235C56.0431 46.7647 56.0301 46.7053 56.015 46.6472C56.0068 46.6137 55.9973 46.5815 55.9884 46.5487C55.974 46.4961 55.9597 46.4441 55.9439 46.3929C55.933 46.358 55.9221 46.3238 55.9104 46.2896C55.8947 46.2404 55.8783 46.1919 55.8612 46.1434C55.8482 46.1085 55.8353 46.0743 55.8223 46.0395C55.8045 45.9923 55.786 45.9451 55.7669 45.8986C55.7525 45.8645 55.7382 45.8303 55.7238 45.7968C55.7033 45.7503 55.6821 45.7045 55.6609 45.6587C55.6452 45.6259 55.6302 45.5931 55.6145 45.5603C55.5912 45.5138 55.5673 45.468 55.5434 45.4228C55.527 45.3921 55.5112 45.3606 55.4941 45.3306C55.4682 45.2827 55.4408 45.2362 55.4135 45.1891C55.3971 45.1617 55.3813 45.1344 55.3649 45.107C55.3321 45.0544 55.2986 45.0024 55.2645 44.9505C55.2508 44.9307 55.2385 44.9102 55.2255 44.8903C55.177 44.8192 55.127 44.7488 55.0758 44.6798C55.0696 44.6723 55.0635 44.6654 55.058 44.6572C55.0122 44.5971 54.965 44.5369 54.9165 44.4781C54.8987 44.4563 54.8803 44.4351 54.8618 44.4132C54.8249 44.3694 54.7873 44.3264 54.749 44.2833C54.7271 44.2587 54.7039 44.2354 54.682 44.2108C54.6458 44.1726 54.6096 44.1343 54.5727 44.0967C54.548 44.0721 54.5228 44.0475 54.4981 44.0235C54.4619 43.988 54.425 43.9524 54.3874 43.9176C54.3614 43.8937 54.3348 43.8697 54.3081 43.8458C54.2705 43.8123 54.2322 43.7795 54.1939 43.7474C54.1666 43.7241 54.1393 43.7009 54.1112 43.6783C54.0716 43.6469 54.0319 43.6154 53.9916 43.5847C53.9636 43.5628 53.9355 43.5416 53.9075 43.5204C53.8651 43.4896 53.8228 43.4596 53.7797 43.4302C53.7523 43.4104 53.725 43.3912 53.697 43.3721C53.6505 43.3413 53.6026 43.3112 53.5555 43.2818C53.5302 43.2654 53.5049 43.249 53.4789 43.2333C53.4201 43.1978 53.36 43.1636 53.2998 43.1301C53.2848 43.1219 53.2704 43.113 53.2554 43.1048C53.1795 43.0638 53.1022 43.0241 53.0243 42.9865C53.0038 42.977 52.9833 42.9681 52.9635 42.9585C52.9054 42.9312 52.8473 42.9045 52.7878 42.8792C52.7584 42.8662 52.7283 42.8553 52.6989 42.843C52.6483 42.8225 52.5971 42.802 52.5458 42.7821C52.513 42.7698 52.4795 42.7589 52.446 42.7466C52.3968 42.7295 52.3476 42.7124 52.2977 42.6967C52.2628 42.6857 52.2272 42.6748 52.1924 42.6645C52.1432 42.6495 52.0939 42.6358 52.0447 42.6222C52.0085 42.6126 51.9716 42.6037 51.9354 42.5941C51.8854 42.5818 51.8355 42.5709 51.7856 42.56C51.7487 42.5518 51.7118 42.5436 51.6749 42.5367C51.6236 42.5265 51.5724 42.5176 51.5204 42.5087C51.4842 42.5025 51.4473 42.4964 51.4104 42.4909C51.357 42.4834 51.3023 42.4766 51.2483 42.4704C51.2128 42.4663 51.1779 42.4615 51.1431 42.4581C51.0829 42.4526 51.0221 42.4485 50.9612 42.4444C50.9312 42.4424 50.9018 42.4396 50.8717 42.4383C50.7808 42.4335 50.6892 42.4314 50.5969 42.4314C50.5053 42.4314 50.4137 42.4335 50.3228 42.4383C50.2927 42.4396 50.2626 42.4424 50.2325 42.4444C50.1717 42.4485 50.1115 42.4526 50.0514 42.4581C50.0158 42.4615 49.981 42.4663 49.9461 42.4704C49.8914 42.4766 49.8374 42.4834 49.7834 42.4909C49.7465 42.4964 49.7103 42.5025 49.6733 42.5087C49.6221 42.5176 49.5701 42.5265 49.5195 42.5367C49.4819 42.5436 49.445 42.5518 49.4081 42.56C49.3582 42.5709 49.3083 42.5818 49.2591 42.5941C49.2222 42.6037 49.1859 42.6126 49.1497 42.6222C49.0998 42.6358 49.0506 42.6495 49.0021 42.6645C48.9665 42.6748 48.931 42.6857 48.8961 42.6967C48.8462 42.7124 48.7977 42.7295 48.7484 42.7466C48.7149 42.7589 48.6814 42.7698 48.6479 42.7821C48.5967 42.802 48.5461 42.8225 48.4955 42.843C48.4654 42.8553 48.4354 42.8662 48.406 42.8792C48.3472 42.9045 48.2891 42.9312 48.231 42.9585C48.2104 42.9681 48.1899 42.977 48.1694 42.9865C48.0915 43.0241 48.0149 43.0638 47.9391 43.1048C47.924 43.113 47.9097 43.1219 47.8946 43.1301C47.8338 43.1636 47.7743 43.1978 47.7148 43.2333C47.6896 43.249 47.6643 43.2654 47.639 43.2818C47.5911 43.3112 47.5439 43.3413 47.4975 43.3721C47.4694 43.3912 47.4421 43.4104 47.4141 43.4295C47.3717 43.4596 47.3286 43.4896 47.2869 43.5204C47.2582 43.5416 47.2302 43.5628 47.2021 43.5847C47.1618 43.6154 47.1222 43.6469 47.0825 43.6783C47.0552 43.7009 47.0271 43.7241 46.9998 43.7474C46.9615 43.7795 46.9232 43.8123 46.8856 43.8458C46.859 43.8697 46.833 43.8937 46.8064 43.9176C46.7688 43.9524 46.7325 43.988 46.6956 44.0235C46.671 44.0475 46.6457 44.0721 46.6218 44.0967C46.5842 44.1343 46.548 44.1726 46.5117 44.2115C46.4898 44.2354 46.4673 44.2594 46.4447 44.2833C46.4064 44.3264 46.3689 44.3701 46.3319 44.4139C46.3135 44.4357 46.295 44.4563 46.2772 44.4781C46.2287 44.5376 46.1815 44.5978 46.1351 44.6593C46.1296 44.6661 46.1241 44.6729 46.1187 44.6798C46.0667 44.7488 46.0168 44.8192 45.9683 44.891C45.9553 44.9102 45.9437 44.9293 45.9307 44.9491C45.8965 45.0011 45.8623 45.0537 45.8288 45.1077C45.8124 45.1344 45.7974 45.1617 45.7816 45.1884C45.7536 45.2355 45.7256 45.2827 45.6996 45.3306C45.6825 45.3606 45.6668 45.3914 45.6511 45.4222C45.6265 45.468 45.6025 45.5138 45.5793 45.5609C45.5636 45.5931 45.5485 45.6252 45.5335 45.6573C45.5116 45.7038 45.4904 45.7503 45.4699 45.7975C45.4556 45.831 45.4412 45.8645 45.4275 45.8979C45.4084 45.9451 45.3893 45.993 45.3715 46.0408C45.3585 46.0743 45.3455 46.1085 45.3332 46.1427C45.3154 46.1919 45.299 46.2411 45.2833 46.291C45.2724 46.3245 45.2607 46.358 45.2505 46.3922C45.2348 46.4448 45.2197 46.4975 45.2054 46.5508C45.1965 46.5822 45.1876 46.6144 45.1794 46.6465C45.1637 46.7066 45.1507 46.7675 45.137 46.8283C45.1315 46.8543 45.1254 46.8796 45.1199 46.9049C45.1021 46.9917 45.0864 47.0785 45.0728 47.166H43.1655V35.8546H60.3955V41.2475Z" fill="black" stroke="black" stroke-width="2" mask="url(#path-1-inside-1_256_653)"/>
<path d="M34.0259 25.8596H16.2709V27.5686H34.0259V25.8596Z" fill="black"/>
<path d="M34.0259 32.9614H26.924V34.6704H34.0259V32.9614Z" fill="black"/>
<path d="M52.2498 48.0204C52.2498 48.9316 51.5081 49.6733 50.5969 49.6733C49.6857 49.6733 48.9446 48.9316 48.9446 48.0204C48.9446 47.1091 49.6857 46.3674 50.5969 46.3674C51.5081 46.3674 52.2498 47.1091 52.2498 48.0204Z" fill="black"/>
<path d="M22.4835 48.4684C22.7305 47.6525 22.2694 46.7908 21.4535 46.5437C20.6376 46.2967 19.7759 46.7578 19.5289 47.5737C19.2818 48.3896 19.743 49.2513 20.5589 49.4983C21.3748 49.7454 22.2364 49.2843 22.4835 48.4684Z" fill="black"/>
</svg>
