<svg width="56" height="65" viewBox="0 0 56 65" fill="none" xmlns="http://www.w3.org/2000/svg">
<path d="M53.8656 19.1373C53.414 18.7249 53.0097 18.3602 52.6467 18.0326C49.6972 15.3712 49.6972 15.3712 48.8024 11.5558C48.6921 11.0862 48.5696 10.5632 48.4283 9.97667C47.7412 7.12368 45.2587 5.09735 42.2508 4.93471C41.6324 4.90132 41.0816 4.87453 40.587 4.85066C36.5688 4.65603 36.5688 4.65603 33.3619 2.29273C32.9196 1.9662 32.4763 1.64097 32.0321 1.31702C29.6203 -0.439007 26.3796 -0.439007 23.9679 1.31702C23.5236 1.64093 23.0804 1.96617 22.6381 2.29273C19.4313 4.65603 19.4313 4.65603 15.413 4.85066C14.9184 4.87453 14.3676 4.90132 13.7492 4.93471C10.7413 5.09748 8.25877 7.12368 7.57154 9.97667C7.43031 10.5632 7.30774 11.0862 7.19757 11.5558C6.30281 15.3711 6.30281 15.3711 3.35327 18.0325C2.99027 18.3602 2.58602 18.7249 2.1344 19.1372C-0.0621248 21.1425 -0.624961 24.2468 0.733965 26.8619C1.01342 27.3994 1.26495 27.8768 1.49103 28.3053C3.32677 31.7875 3.32677 31.7875 2.8262 35.6707C2.76459 36.1486 2.69606 36.6807 2.62244 37.2788C2.26493 40.1883 3.8853 42.9183 6.65458 44.0719C7.22381 44.309 7.73196 44.5174 8.18815 44.7043C10.0986 45.4874 11.0241 45.8676 11.7715 46.5014L5.79323 58.9916C5.71279 59.1599 5.68128 59.3464 5.70212 59.5309C5.72296 59.7154 5.79535 59.8908 5.91144 60.0381C6.02752 60.1854 6.18286 60.2989 6.36061 60.3664C6.53835 60.4339 6.7317 60.4528 6.91968 60.4209L12.8771 59.4084L15.9154 64.4944C16.0112 64.655 16.1505 64.7869 16.318 64.8758C16.4856 64.9648 16.675 65.0074 16.8656 64.999C17.0563 64.9905 17.241 64.9314 17.3995 64.8281C17.5581 64.7248 17.6845 64.5811 17.765 64.4128L23.0283 53.4162C23.4356 53.2954 23.8104 53.183 24.1558 53.0793C27.9999 51.9254 28.0002 51.9254 31.8444 53.0793C32.2386 53.1976 32.6727 53.3277 33.1486 53.4685L38.3868 64.4128C38.4708 64.5881 38.6046 64.7365 38.7723 64.8405C38.94 64.9445 39.1348 64.9997 39.3337 64.9997C39.7044 64.9997 40.0488 64.808 40.2364 64.4944L43.2747 59.4084L49.2321 60.4209C49.4201 60.4528 49.6135 60.434 49.7913 60.3665C49.969 60.299 50.1244 60.1855 50.2405 60.0382C50.3566 59.8908 50.429 59.7154 50.4498 59.5309C50.4706 59.3464 50.4391 59.1599 50.3586 58.9916L44.3373 46.4118C45.067 45.8302 45.9931 45.4499 47.8118 44.7044C48.2682 44.5173 48.7763 44.309 49.3456 44.0719C52.1148 42.9183 53.7352 40.1884 53.3778 37.2788C53.3043 36.6807 53.2357 36.1486 53.1739 35.6706C52.6732 31.7875 52.6732 31.7875 54.5091 28.3053C54.7349 27.8767 54.9866 27.3994 55.266 26.8619C56.625 24.247 56.0621 21.1426 53.8656 19.1373ZM16.7159 61.7914L14.317 57.7759C14.2095 57.5965 14.0482 57.4533 13.8547 57.3657C13.6612 57.278 13.4447 57.2501 13.2344 57.2857L8.53092 58.0851L13.2355 48.2559C13.4816 48.6136 13.7557 49.0258 14.078 49.5115C14.3467 49.9162 14.6459 50.367 14.9849 50.8713C16.246 52.747 18.3243 53.8172 20.5225 53.838L16.7159 61.7914ZM42.9172 57.2856C42.7069 57.2499 42.4903 57.2777 42.2968 57.3654C42.1032 57.453 41.9419 57.5963 41.8346 57.7758L39.4356 61.7912L35.6281 53.836C37.7702 53.7687 39.7826 52.7041 41.0151 50.8711C41.3541 50.3668 41.6533 49.9162 41.9218 49.5116C42.2839 48.966 42.5853 48.5127 42.854 48.1262L47.6206 58.0848L42.9172 57.2856ZM53.4021 25.9456C53.1531 26.424 52.9026 26.9016 52.6507 27.3785C50.5805 31.3053 50.537 31.5448 51.1017 35.9235C51.1629 36.398 51.2309 36.9263 51.304 37.5199C51.5543 39.5578 50.4629 41.3966 48.5232 42.2046C47.958 42.44 47.4537 42.6467 47.0006 42.8323C42.8199 44.5461 42.6283 44.7024 40.1674 48.4097C39.9006 48.8114 39.6037 49.2588 39.2672 49.7592C38.1123 51.4766 36.0611 52.2029 34.0414 51.6092C33.4529 51.4362 32.9297 51.2792 32.4601 51.1383C30.2927 50.4877 29.1462 50.1623 27.9999 50.1623C26.8536 50.1623 25.7073 50.4877 23.5398 51.1383C23.07 51.2792 22.547 51.4362 21.9585 51.6092C19.9389 52.203 17.8875 51.4767 16.7328 49.7592C16.3961 49.2586 16.0992 48.8112 15.8325 48.4094C13.3715 44.7025 13.1799 44.5461 8.99912 42.8323C8.49099 42.6246 7.98349 42.4153 7.47664 42.2046C5.53713 41.3966 4.44552 39.5577 4.69601 37.5199C4.76178 36.9876 4.82922 36.4555 4.89833 35.9236C5.46286 31.5448 5.41939 31.3053 3.34922 27.3785C3.09725 26.9016 2.84677 26.424 2.59777 25.9456C1.64596 24.1139 2.02502 22.0229 3.56342 20.6185C4.01178 20.2091 4.41315 19.847 4.77354 19.5219C8.09939 16.5207 8.22444 16.31 9.23355 12.0077C9.34293 11.5415 9.46471 11.0223 9.6049 10.4401C10.0863 8.44181 11.7585 7.07696 13.8652 6.96307C14.4791 6.92981 15.026 6.90327 15.5169 6.87953C20.048 6.66001 20.283 6.57685 23.8993 3.91177C24.2911 3.62305 24.7273 3.30146 25.2194 2.94317C26.9086 1.71327 29.0914 1.71327 30.7806 2.94317C31.2728 3.30146 31.7089 3.62293 32.1007 3.91177C35.717 6.57672 35.952 6.66001 40.4831 6.87953C40.9741 6.90327 41.5209 6.92981 42.1348 6.96307C44.2415 7.07696 45.9137 8.44181 46.395 10.4401C46.5352 11.0223 46.6569 11.5415 46.7663 12.0077C47.7754 16.31 47.9005 16.5207 51.2265 19.5219C51.5868 19.8472 51.9882 20.2093 52.4366 20.6185C53.9749 22.0229 54.3539 24.114 53.4021 25.9456ZM27.9999 10.0324C18.4274 10.0324 10.6397 17.6075 10.6397 26.9185C10.6397 36.2295 18.4274 43.8046 27.9999 43.8046C37.5725 43.8046 45.3601 36.2295 45.3601 26.9185C45.3601 17.6075 37.5725 10.0324 27.9999 10.0324ZM27.9999 41.7733C19.5791 41.7733 12.7282 35.1095 12.7282 26.9186C12.7282 18.7277 19.5791 12.0639 27.9999 12.0639C36.4208 12.0639 43.2717 18.7277 43.2717 26.9186C43.2717 35.1095 36.4208 41.7733 27.9999 41.7733ZM33.1645 28.9148H33.163C32.06 28.9151 31.0231 29.3332 30.2436 30.0921C29.4638 30.8509 29.0348 31.8598 29.0352 32.9326C29.0355 34.0056 29.4654 35.0142 30.2455 35.7725C31.0254 36.5305 32.062 36.948 33.1645 36.948H33.1658C35.4428 36.9471 37.2947 35.1447 37.2938 32.9301C37.2934 31.8571 36.8636 30.8485 36.0834 30.0902C35.3036 29.3321 34.2672 28.9148 33.1645 28.9148ZM33.1653 34.9166H33.1647C32.8966 34.9173 32.6311 34.8663 32.3834 34.7666C32.1358 34.6669 31.9109 34.5204 31.7218 34.3356C31.5316 34.1517 31.3808 33.933 31.2781 33.6921C31.1754 33.4512 31.1229 33.1928 31.1236 32.932C31.1233 32.4017 31.3354 31.9031 31.7208 31.528C32.1061 31.153 32.6185 30.9463 33.1637 30.9462H33.1645C33.7095 30.9462 34.2218 31.1525 34.6073 31.5271C34.7974 31.711 34.9483 31.9297 35.0509 32.1706C35.1536 32.4116 35.2061 32.6699 35.2055 32.9307C35.2059 34.0253 34.2906 34.9162 33.1653 34.9166ZM22.8368 24.9225C25.1136 24.9218 26.9654 23.1193 26.9647 20.9045C26.9638 18.6902 25.1116 16.8893 22.8352 16.8893H22.8338C20.557 16.8901 18.7052 18.6926 18.7058 20.9073C18.7067 23.1217 20.5588 24.9227 22.8351 24.9225H22.8368ZM20.7944 20.9067C20.794 19.812 21.7094 18.9211 22.8347 18.9207H22.8353C23.9604 18.9207 24.876 19.8109 24.8764 20.9052C24.8768 21.9998 23.9615 22.8907 22.8361 22.8911H22.8353C21.7102 22.8911 20.7948 22.001 20.7944 20.9067ZM34.7233 19.6243L23.1607 35.2878C23.064 35.419 22.9366 35.5258 22.7889 35.5995C22.6412 35.6731 22.4776 35.7114 22.3117 35.7112C22.0934 35.7113 21.8806 35.6446 21.7035 35.5204C21.4786 35.3633 21.327 35.1257 21.2822 34.8599C21.2373 34.594 21.3029 34.3218 21.4644 34.103L33.027 18.4395C33.1895 18.2232 33.4333 18.0781 33.7053 18.0358C33.9772 17.9936 34.2554 18.0575 34.4791 18.2138C34.7029 18.37 34.854 18.606 34.8998 18.8702C34.9455 19.1344 34.8821 19.4054 34.7233 19.6243Z" fill="black"/>
</svg>
