<svg width="25" height="30" viewBox="0 0 25 30" fill="none" xmlns="http://www.w3.org/2000/svg">
<mask id="path-1-inside-1_109_78" fill="white">
<path d="M3.67885 29.4667C2.89685 29.4667 2.24405 29.2146 1.72045 28.7104C1.19572 28.2051 0.93335 27.5759 0.93335 26.8229V9.19196C0.93335 8.43893 1.19572 7.8103 1.72045 7.3061C2.24405 6.8008 2.89685 6.54815 3.67885 6.54815H6.88335V5.72963C6.88335 4.13843 7.46192 2.78569 8.61905 1.67141C9.77618 0.557138 11.1809 0 12.8333 0C14.4857 0 15.8905 0.557138 17.0476 1.67141C18.2048 2.78569 18.7833 4.13843 18.7833 5.72963V6.54815H21.9878C22.7698 6.54815 23.4226 6.8008 23.9462 7.3061C24.471 7.8103 24.7333 8.43893 24.7333 9.19196V26.8229C24.7333 27.5759 24.4715 28.2045 23.9479 28.7087C23.4232 29.214 22.7698 29.4667 21.9878 29.4667H3.67885ZM3.67885 27.8296H21.9878C22.2485 27.8296 22.4882 27.7249 22.7069 27.5153C22.9245 27.3047 23.0333 27.0739 23.0333 26.8229V9.19196C23.0333 8.94095 22.9245 8.71013 22.7069 8.4995C22.4882 8.28996 22.2485 8.18519 21.9878 8.18519H18.7833V12.2778C18.7833 12.5102 18.7023 12.705 18.5402 12.8622C18.3771 13.0183 18.1747 13.0963 17.9333 13.0963C17.6919 13.0963 17.4896 13.0183 17.3264 12.8622C17.1644 12.705 17.0833 12.5102 17.0833 12.2778V8.18519H8.58335V12.2778C8.58335 12.5102 8.50232 12.705 8.34025 12.8622C8.17705 13.0183 7.97475 13.0963 7.73335 13.0963C7.49195 13.0963 7.28965 13.0183 7.12645 12.8622C6.96438 12.705 6.88335 12.5102 6.88335 12.2778V8.18519H3.67885C3.41818 8.18519 3.17848 8.28996 2.95975 8.4995C2.74215 8.71013 2.63335 8.94095 2.63335 9.19196V26.8229C2.63335 27.0739 2.74215 27.3047 2.95975 27.5153C3.17848 27.7249 3.41818 27.8296 3.67885 27.8296ZM8.58335 6.54815H17.0833V5.72963C17.0833 4.57716 16.6742 3.60694 15.8559 2.81898C15.0377 2.03102 14.0301 1.63704 12.8333 1.63704C11.6365 1.63704 10.629 2.03102 9.81075 2.81898C8.99248 3.60694 8.58335 4.57716 8.58335 5.72963V6.54815Z"/>
</mask>
<path d="M3.67885 29.4667C2.89685 29.4667 2.24405 29.2146 1.72045 28.7104C1.19572 28.2051 0.93335 27.5759 0.93335 26.8229V9.19196C0.93335 8.43893 1.19572 7.8103 1.72045 7.3061C2.24405 6.8008 2.89685 6.54815 3.67885 6.54815H6.88335V5.72963C6.88335 4.13843 7.46192 2.78569 8.61905 1.67141C9.77618 0.557138 11.1809 0 12.8333 0C14.4857 0 15.8905 0.557138 17.0476 1.67141C18.2048 2.78569 18.7833 4.13843 18.7833 5.72963V6.54815H21.9878C22.7698 6.54815 23.4226 6.8008 23.9462 7.3061C24.471 7.8103 24.7333 8.43893 24.7333 9.19196V26.8229C24.7333 27.5759 24.4715 28.2045 23.9479 28.7087C23.4232 29.214 22.7698 29.4667 21.9878 29.4667H3.67885ZM3.67885 27.8296H21.9878C22.2485 27.8296 22.4882 27.7249 22.7069 27.5153C22.9245 27.3047 23.0333 27.0739 23.0333 26.8229V9.19196C23.0333 8.94095 22.9245 8.71013 22.7069 8.4995C22.4882 8.28996 22.2485 8.18519 21.9878 8.18519H18.7833V12.2778C18.7833 12.5102 18.7023 12.705 18.5402 12.8622C18.3771 13.0183 18.1747 13.0963 17.9333 13.0963C17.6919 13.0963 17.4896 13.0183 17.3264 12.8622C17.1644 12.705 17.0833 12.5102 17.0833 12.2778V8.18519H8.58335V12.2778C8.58335 12.5102 8.50232 12.705 8.34025 12.8622C8.17705 13.0183 7.97475 13.0963 7.73335 13.0963C7.49195 13.0963 7.28965 13.0183 7.12645 12.8622C6.96438 12.705 6.88335 12.5102 6.88335 12.2778V8.18519H3.67885C3.41818 8.18519 3.17848 8.28996 2.95975 8.4995C2.74215 8.71013 2.63335 8.94095 2.63335 9.19196V26.8229C2.63335 27.0739 2.74215 27.3047 2.95975 27.5153C3.17848 27.7249 3.41818 27.8296 3.67885 27.8296ZM8.58335 6.54815H17.0833V5.72963C17.0833 4.57716 16.6742 3.60694 15.8559 2.81898C15.0377 2.03102 14.0301 1.63704 12.8333 1.63704C11.6365 1.63704 10.629 2.03102 9.81075 2.81898C8.99248 3.60694 8.58335 4.57716 8.58335 5.72963V6.54815Z" fill="black"/>
<path d="M4.63335 27.8296V8.18519H0.63335V27.8296H4.63335ZM1.72045 7.3061L4.49191 10.1904L4.49813 10.1844L1.72045 7.3061ZM6.88335 6.54815V10.5481H10.8833V6.54815H6.88335ZM18.7833 5.72963H22.7833H18.7833ZM18.7833 6.54815H14.7833V10.5481H18.7833V6.54815ZM23.9462 7.3061L21.1686 10.1844L21.1748 10.1904L23.9462 7.3061ZM22.7069 27.5153L25.474 30.4038L25.4815 30.3966L25.489 30.3894L22.7069 27.5153ZM22.7069 8.4995L25.489 5.62543L25.4815 5.61821L25.474 5.61102L22.7069 8.4995ZM18.7833 8.18519V4.18519H14.7833V8.18519H18.7833ZM18.5402 12.8622L21.3048 15.7531L21.3148 15.7435L21.3248 15.7338L18.5402 12.8622ZM17.3264 12.8622L14.5419 15.7338L14.5519 15.7435L14.5619 15.7531L17.3264 12.8622ZM17.0833 8.18519H21.0833V4.18519H17.0833V8.18519ZM8.58335 8.18519V4.18519H4.58335V8.18519H8.58335ZM8.34025 12.8622L11.1048 15.7531L11.1148 15.7435L11.1248 15.7338L8.34025 12.8622ZM7.12645 12.8622L4.34187 15.7338L4.35186 15.7435L4.36193 15.7531L7.12645 12.8622ZM6.88335 8.18519H10.8833V4.18519H6.88335V8.18519ZM2.95975 8.4995L0.19267 5.61102L0.185172 5.61821L0.177713 5.62543L2.95975 8.4995ZM2.95975 27.5153L0.177713 30.3894L0.185172 30.3966L0.19267 30.4038L2.95975 27.5153ZM8.58335 6.54815H4.58335V10.5481H8.58335V6.54815ZM17.0833 6.54815V10.5481H21.0833V6.54815H17.0833ZM3.67885 25.4667C3.72298 25.4667 3.8596 25.475 4.04378 25.5462C4.2333 25.6194 4.38847 25.7265 4.49502 25.8291L-1.05412 31.5916C0.274698 32.8712 1.94832 33.4667 3.67885 33.4667V25.4667ZM4.49502 25.8291C4.59956 25.9297 4.72826 26.0952 4.82199 26.32C4.91453 26.5419 4.93335 26.7264 4.93335 26.8229H-3.06665C-3.06665 28.6217 -2.39106 30.3042 -1.05412 31.5916L4.49502 25.8291ZM4.93335 26.8229V9.19196H-3.06665V26.8229H4.93335ZM4.93335 9.19196C4.93335 9.2884 4.91455 9.47348 4.82151 9.69638C4.72725 9.92223 4.59764 10.0888 4.4919 10.1904L-1.051 4.42182C-2.39084 5.70924 -3.06665 7.39297 -3.06665 9.19196H4.93335ZM4.49813 10.1844C4.39194 10.2868 4.23671 10.3944 4.04649 10.468C3.86156 10.5396 3.72399 10.5481 3.67885 10.5481V2.54815C1.94572 2.54815 0.271093 3.14592 -1.05723 4.42781L4.49813 10.1844ZM3.67885 10.5481H6.88335V2.54815H3.67885V10.5481ZM10.8833 6.54815V5.72963H2.88335V6.54815H10.8833ZM10.8833 5.72963C10.8833 5.23717 11.011 4.92111 11.3936 4.5527L5.84448 -1.20987C3.9128 0.650272 2.88335 3.03969 2.88335 5.72963H10.8833ZM11.3936 4.5527C11.782 4.17869 12.1827 4 12.8333 4V-4C10.1792 -4 7.77036 -3.06442 5.84448 -1.20987L11.3936 4.5527ZM12.8333 4C13.484 4 13.8847 4.17869 14.2731 4.5527L19.8222 -1.20987C17.8963 -3.06442 15.4875 -4 12.8333 -4V4ZM14.2731 4.5527C14.6557 4.92111 14.7833 5.23717 14.7833 5.72963H22.7833C22.7833 3.03969 21.7539 0.650272 19.8222 -1.20987L14.2731 4.5527ZM14.7833 5.72963V6.54815H22.7833V5.72963H14.7833ZM18.7833 10.5481H21.9878V2.54815H18.7833V10.5481ZM21.9878 10.5481C21.9427 10.5481 21.8051 10.5396 21.6202 10.468C21.43 10.3944 21.2748 10.2869 21.1686 10.1844L26.7239 4.42781C25.3956 3.14592 23.721 2.54815 21.9878 2.54815V10.5481ZM21.1748 10.1904C21.0691 10.0888 20.9394 9.92223 20.8452 9.69638C20.7522 9.47348 20.7333 9.28839 20.7333 9.19196H28.7333C28.7333 7.39297 28.0575 5.70924 26.7177 4.42182L21.1748 10.1904ZM20.7333 9.19196V26.8229H28.7333V9.19196H20.7333ZM20.7333 26.8229C20.7333 26.7275 20.7519 26.5434 20.8444 26.3213C20.9382 26.0961 21.0674 25.9295 21.1734 25.8274L26.7225 31.59C28.0602 30.3018 28.7333 28.619 28.7333 26.8229H20.7333ZM21.1734 25.8274C21.2785 25.7262 21.4326 25.6195 21.6217 25.5464C21.8057 25.4753 21.9427 25.4667 21.9878 25.4667V33.4667C23.721 33.4667 25.3943 32.869 26.7225 31.59L21.1734 25.8274ZM21.9878 25.4667H3.67885V33.4667H21.9878V25.4667ZM3.67885 31.8296H21.9878V23.8296H3.67885V31.8296ZM21.9878 31.8296C23.4461 31.8296 24.6403 31.2025 25.474 30.4038L19.9399 24.6268C20.1174 24.4567 20.3878 24.2491 20.7611 24.0859C21.1446 23.9182 21.5648 23.8296 21.9878 23.8296V31.8296ZM25.489 30.3894C26.3124 29.5923 27.0333 28.3761 27.0333 26.8229H19.0333C19.0333 26.3487 19.1408 25.8876 19.3335 25.4788C19.5195 25.0842 19.7501 24.8105 19.9249 24.6413L25.489 30.3894ZM27.0333 26.8229V9.19196H19.0333V26.8229H27.0333ZM27.0333 9.19196C27.0333 7.63871 26.3124 6.42248 25.489 5.62543L19.9249 11.3736C19.7501 11.2043 19.5196 10.9307 19.3335 10.5361C19.1408 10.1272 19.0333 9.66616 19.0333 9.19196H27.0333ZM25.474 5.61102C24.6403 4.8123 23.4461 4.18519 21.9878 4.18519V12.1852C21.5648 12.1852 21.1446 12.0966 20.7611 11.9289C20.3878 11.7658 20.1174 11.5581 19.9399 11.388L25.474 5.61102ZM21.9878 4.18519H18.7833V12.1852H21.9878V4.18519ZM14.7833 8.18519V12.2778H22.7833V8.18519H14.7833ZM14.7833 12.2778C14.7833 11.9206 14.8476 11.4988 15.0293 11.062C15.2121 10.6227 15.4739 10.2639 15.7557 9.9906L21.3248 15.7338C22.2894 14.7985 22.7833 13.5563 22.7833 12.2778H14.7833ZM15.7757 9.97128C16.0598 9.69962 16.4145 9.46474 16.8266 9.30578C17.2339 9.14868 17.6174 9.0963 17.9333 9.0963V17.0963C19.1265 17.0963 20.3425 16.6733 21.3048 15.7531L15.7757 9.97128ZM17.9333 9.0963C18.2493 9.0963 18.6328 9.14868 19.0401 9.30578C19.4522 9.46474 19.8069 9.69962 20.091 9.97128L14.5619 15.7531C15.5242 16.6733 16.7402 17.0963 17.9333 17.0963V9.0963ZM20.111 9.9906C20.3928 10.2639 20.6546 10.6227 20.8374 11.062C21.0191 11.4988 21.0833 11.9206 21.0833 12.2778H13.0833C13.0833 13.5563 13.5773 14.7985 14.5419 15.7338L20.111 9.9906ZM21.0833 12.2778V8.18519H13.0833V12.2778H21.0833ZM17.0833 4.18519H8.58335V12.1852H17.0833V4.18519ZM4.58335 8.18519V12.2778H12.5833V8.18519H4.58335ZM4.58335 12.2778C4.58335 11.9206 4.64764 11.4988 4.82935 11.062C5.01208 10.6227 5.27386 10.2639 5.55567 9.9906L11.1248 15.7338C12.0894 14.7985 12.5833 13.5563 12.5833 12.2778H4.58335ZM5.57573 9.97128C5.85981 9.69962 6.2145 9.46474 6.62661 9.30578C7.0339 9.14868 7.41742 9.0963 7.73335 9.0963V17.0963C8.92646 17.0963 10.1425 16.6733 11.1048 15.7531L5.57573 9.97128ZM7.73335 9.0963C8.04928 9.0963 8.4328 9.14868 8.84009 9.30578C9.2522 9.46474 9.60689 9.69962 9.89097 9.97128L4.36193 15.7531C5.32416 16.6733 6.54024 17.0963 7.73335 17.0963V9.0963ZM9.91103 9.9906C10.1928 10.2639 10.4546 10.6227 10.6374 11.062C10.8191 11.4988 10.8833 11.9206 10.8833 12.2778H2.88335C2.88335 13.5563 3.3773 14.7985 4.34187 15.7338L9.91103 9.9906ZM10.8833 12.2778V8.18519H2.88335V12.2778H10.8833ZM6.88335 4.18519H3.67885V12.1852H6.88335V4.18519ZM3.67885 4.18519C2.22055 4.18519 1.02643 4.8123 0.19267 5.61102L5.72683 11.388C5.54928 11.5581 5.27895 11.7658 4.90559 11.9289C4.52208 12.0966 4.10192 12.1852 3.67885 12.1852V4.18519ZM0.177713 5.62543C-0.645704 6.42248 -1.36665 7.6387 -1.36665 9.19196H6.63335C6.63335 9.66617 6.52586 10.1272 6.33315 10.5361C6.14714 10.9307 5.91662 11.2043 5.74179 11.3736L0.177713 5.62543ZM-1.36665 9.19196V26.8229H6.63335V9.19196H-1.36665ZM-1.36665 26.8229C-1.36665 28.3761 -0.64571 29.5923 0.177713 30.3894L5.74179 24.6413C5.91662 24.8105 6.14715 25.0841 6.33315 25.4788C6.52586 25.8876 6.63335 26.3486 6.63335 26.8229H-1.36665ZM0.19267 30.4038C1.02645 31.2025 2.22056 31.8296 3.67885 31.8296V23.8296C4.10191 23.8296 4.52207 23.9182 4.90558 24.0859C5.27894 24.2491 5.54927 24.4568 5.72683 24.6268L0.19267 30.4038ZM8.58335 10.5481H17.0833V2.54815H8.58335V10.5481ZM21.0833 6.54815V5.72963H13.0833V6.54815H21.0833ZM21.0833 5.72963C21.0833 3.50795 20.2446 1.49196 18.6305 -0.0623028L13.0814 5.70026C13.0959 5.71421 13.1048 5.72403 13.1094 5.72939C13.1139 5.7347 13.1148 5.73621 13.1131 5.73381C13.1114 5.73136 13.1079 5.72613 13.1036 5.7183C13.0993 5.71044 13.0949 5.70146 13.0908 5.69184C13.0867 5.68223 13.0837 5.67362 13.0816 5.66669C13.0796 5.6598 13.0789 5.65614 13.0789 5.65648C13.0789 5.6565 13.0833 5.67892 13.0833 5.72963H21.0833ZM18.6305 -0.0623028C17.0239 -1.60939 15.0037 -2.36296 12.8333 -2.36296V5.63704C12.9127 5.63704 12.9637 5.64352 12.9917 5.64851C13.0189 5.65337 13.0298 5.6578 13.0299 5.65783C13.0305 5.65808 13.0304 5.65807 13.0301 5.65792C13.0298 5.65777 13.0307 5.65819 13.0331 5.65971C13.0368 5.66216 13.0532 5.6731 13.0814 5.70026L18.6305 -0.0623028ZM12.8333 -2.36296C10.663 -2.36296 8.64277 -1.60939 7.03618 -0.0623028L12.5853 5.70026C12.6135 5.6731 12.6298 5.66216 12.6336 5.65971C12.636 5.65819 12.6369 5.65777 12.6366 5.65792C12.6363 5.65807 12.6362 5.65808 12.6368 5.65783C12.6369 5.6578 12.6478 5.65337 12.675 5.64851C12.7029 5.64352 12.754 5.63704 12.8333 5.63704V-2.36296ZM7.03618 -0.0623028C5.42215 1.49196 4.58335 3.50795 4.58335 5.72963H12.5833C12.5833 5.67892 12.5878 5.6565 12.5878 5.65648C12.5878 5.65614 12.5871 5.6598 12.5851 5.66669C12.583 5.67362 12.58 5.68223 12.5759 5.69184C12.5718 5.70146 12.5674 5.71044 12.5631 5.7183C12.5588 5.72613 12.5553 5.73136 12.5536 5.73381C12.5519 5.73621 12.5528 5.7347 12.5573 5.72939C12.5619 5.72403 12.5708 5.71421 12.5853 5.70026L7.03618 -0.0623028ZM4.58335 5.72963V6.54815H12.5833V5.72963H4.58335Z" fill="black" mask="url(#path-1-inside-1_109_78)"/>
</svg>
