<svg width="65" height="65" viewBox="0 0 65 65" fill="none" xmlns="http://www.w3.org/2000/svg">
<path d="M21.3281 32.4999C21.1945 32.5007 21.062 32.4751 20.9382 32.4245C20.8145 32.374 20.7019 32.2995 20.607 32.2054L16.9914 28.5898L14.5438 29.4023C14.3908 29.454 14.2276 29.4684 14.0679 29.4444C13.9082 29.4204 13.7566 29.3587 13.6255 29.2644C13.4944 29.1701 13.3877 29.0458 13.3143 28.902C13.2408 28.7582 13.2027 28.5989 13.2031 28.4374V21.3281C13.2037 21.1235 13.2661 20.9238 13.3821 20.7553C13.4981 20.5868 13.6623 20.4572 13.8531 20.3835L35.1813 12.2585C35.4331 12.1629 35.7126 12.1712 35.9583 12.2817C36.204 12.3922 36.3958 12.5957 36.4914 12.8476C36.587 13.0994 36.5787 13.379 36.4682 13.6247C36.3578 13.8704 36.1542 14.0621 35.9023 14.1577L15.2344 22.0288V27.0257L16.9406 26.457C17.1161 26.4018 17.3033 26.3953 17.4822 26.4383C17.6611 26.4812 17.8249 26.5719 17.9563 26.7007L20.3125 29.0366V24.3749C20.3115 24.1727 20.3709 23.9748 20.4831 23.8065C20.5952 23.6382 20.7551 23.5072 20.9422 23.4304L42.2703 14.7062C42.5195 14.6038 42.7991 14.6046 43.0476 14.7084C43.2962 14.8122 43.4933 15.0105 43.5957 15.2597C43.6981 15.5089 43.6973 15.7885 43.5934 16.037C43.4896 16.2856 43.2914 16.4827 43.0422 16.5851L22.3438 25.0554V31.4843C22.3438 31.7537 22.2368 32.012 22.0463 32.2025C21.8558 32.3929 21.5975 32.4999 21.3281 32.4999Z" fill="black"/>
<path d="M28.4375 57.8906C28.3197 57.8905 28.2029 57.8699 28.0922 57.8297L5.74844 49.7047C5.55215 49.6337 5.38249 49.504 5.26255 49.3332C5.14261 49.1624 5.07821 48.9587 5.07812 48.75V18.2812C5.07812 18.0119 5.18513 17.7536 5.37559 17.5631C5.56606 17.3726 5.82439 17.2656 6.09375 17.2656C6.36311 17.2656 6.62144 17.3726 6.81191 17.5631C7.00237 17.7536 7.10938 18.0119 7.10938 18.2812V48.0391L27.4219 55.4227V26.4062C27.4219 26.1369 27.5289 25.8786 27.7193 25.6881C27.9098 25.4976 28.1681 25.3906 28.4375 25.3906C28.7069 25.3906 28.9652 25.4976 29.1557 25.6881C29.3461 25.8786 29.4531 26.1369 29.4531 26.4062V56.875C29.4531 57.1444 29.3461 57.4027 29.1557 57.5932C28.9652 57.7836 28.7069 57.8906 28.4375 57.8906ZM50.7812 26.4062C50.5119 26.4062 50.2536 26.2992 50.0631 26.1088C49.8726 25.9183 49.7656 25.66 49.7656 25.3906V18.2812C49.7656 18.0119 49.8726 17.7536 50.0631 17.5631C50.2536 17.3726 50.5119 17.2656 50.7812 17.2656C51.0506 17.2656 51.3089 17.3726 51.4994 17.5631C51.6899 17.7536 51.7969 18.0119 51.7969 18.2812V25.3906C51.7969 25.66 51.6899 25.9183 51.4994 26.1088C51.3089 26.2992 51.0506 26.4062 50.7812 26.4062Z" fill="black"/>
<path d="M28.4375 57.8907C28.1987 57.8904 27.9677 57.806 27.785 57.6523C27.6023 57.4987 27.4795 57.2855 27.4383 57.0504C27.3971 56.8152 27.44 56.573 27.5596 56.3664C27.6792 56.1597 27.8678 56.0018 28.0922 55.9204L49.7656 48.0391V45.7032C49.7656 45.4338 49.8726 45.1755 50.0631 44.985C50.2536 44.7946 50.5119 44.6876 50.7812 44.6876C51.0506 44.6876 51.3089 44.7946 51.4994 44.985C51.6899 45.1755 51.7969 45.4338 51.7969 45.7032V48.7501C51.7968 48.9588 51.7324 49.1624 51.6124 49.3332C51.4925 49.5041 51.3228 49.6338 51.1266 49.7047L28.7828 57.8297C28.6721 57.8699 28.5553 57.8905 28.4375 57.8907ZM28.4375 27.4219C28.3197 27.4218 28.2029 27.4012 28.0922 27.361L5.74843 19.236C5.55237 19.1648 5.38297 19.035 5.26325 18.8642C5.14354 18.6934 5.07932 18.4899 5.07932 18.2813C5.07932 18.0727 5.14354 17.8692 5.26325 17.6984C5.38297 17.5276 5.55237 17.3978 5.74843 17.3266L28.0922 9.20162C28.3153 9.12094 28.5597 9.12094 28.7828 9.20162L51.1266 17.3266C51.3226 17.3978 51.492 17.5276 51.6117 17.6984C51.7315 17.8692 51.7957 18.0727 51.7957 18.2813C51.7957 18.4899 51.7315 18.6934 51.6117 18.8642C51.492 19.035 51.3226 19.1648 51.1266 19.236L28.7828 27.361C28.6721 27.4012 28.5553 27.4218 28.4375 27.4219ZM9.06953 18.2813L28.4375 25.3297L47.8055 18.2813L28.4375 11.2329L9.06953 18.2813ZM33.5156 50.3243C33.2769 50.324 33.0458 50.2396 32.8631 50.0859C32.6804 49.9323 32.5577 49.7191 32.5164 49.484C32.4752 49.2488 32.5182 49.0066 32.6377 48.8C32.7573 48.5933 32.9459 48.4354 33.1703 48.354L37.2328 46.8813C37.4649 46.8444 37.7026 46.8891 37.9054 47.0078C38.1082 47.1265 38.2636 47.3118 38.3451 47.5322C38.4265 47.7527 38.429 47.9945 38.3521 48.2166C38.2753 48.4387 38.1238 48.6272 37.9234 48.7501L33.8609 50.2227C33.7528 50.2769 33.6359 50.3112 33.5156 50.3243ZM33.5156 46.2618C33.2769 46.2615 33.0458 46.1771 32.8631 46.0234C32.6804 45.8698 32.5577 45.6566 32.5164 45.4215C32.4752 45.1863 32.5182 44.9441 32.6377 44.7375C32.7573 44.5308 32.9459 44.3729 33.1703 44.2915L35.2016 43.5501C35.4526 43.4672 35.7261 43.4855 35.9639 43.6011C36.2017 43.7167 36.385 43.9204 36.4749 44.1691C36.5649 44.4177 36.5543 44.6916 36.4455 44.9325C36.3367 45.1735 36.1382 45.3625 35.8922 45.4594L33.8609 46.2008C33.7502 46.241 33.6334 46.2616 33.5156 46.2618Z" fill="black"/>
<path d="M49.2578 45.7031C47.4484 45.7023 45.6689 45.2411 44.0868 44.3629C42.5048 43.4848 41.1722 42.2185 40.2145 40.6832C39.2569 39.148 38.7056 37.3943 38.6126 35.5873C38.5195 33.7802 38.8878 31.9792 39.6828 30.3538C40.4778 28.7283 41.6733 27.3319 43.1568 26.2959C44.6403 25.2599 46.3631 24.6184 48.1629 24.4319C49.9627 24.2453 51.7803 24.5197 53.4448 25.2293C55.1093 25.939 56.5658 27.0605 57.6774 28.4883C57.843 28.7011 57.9173 28.971 57.884 29.2386C57.8507 29.5062 57.7124 29.7496 57.4996 29.9152C57.2868 30.0809 57.0169 30.1552 56.7493 30.1219C56.4817 30.0886 56.2383 29.9503 56.0727 29.7375C55.0604 28.441 53.6989 27.4606 52.1483 26.9118C50.5976 26.363 48.9225 26.2686 47.32 26.6398C45.7176 27.0109 44.2545 27.8321 43.1031 29.0068C41.9516 30.1814 41.1597 31.6606 40.8206 33.2701C40.4815 34.8797 40.6093 36.5526 41.1889 38.092C41.7685 39.6313 42.7759 40.9731 44.0924 41.9592C45.4088 42.9454 46.9797 43.5349 48.6199 43.6584C50.2601 43.7819 51.9015 43.4342 53.3508 42.6563C53.5878 42.5283 53.866 42.4998 54.1241 42.5769C54.3821 42.654 54.599 42.8305 54.727 43.0676C54.8549 43.3046 54.8835 43.5828 54.8063 43.8409C54.7292 44.0989 54.5527 44.3158 54.3156 44.4438C52.7594 45.2742 51.0218 45.7069 49.2578 45.7031Z" fill="black"/>
<path d="M56.875 30.4688H52.8125C52.5431 30.4688 52.2848 30.3617 52.0943 30.1713C51.9039 29.9808 51.7969 29.7225 51.7969 29.4531C51.7969 29.1838 51.9039 28.9254 52.0943 28.735C52.2848 28.5445 52.5431 28.4375 52.8125 28.4375H55.8594V25.3906C55.8594 25.1213 55.9664 24.8629 56.1568 24.6725C56.3473 24.482 56.6056 24.375 56.875 24.375C57.1444 24.375 57.4027 24.482 57.5932 24.6725C57.7836 24.8629 57.8906 25.1213 57.8906 25.3906V29.4531C57.8906 29.7225 57.7836 29.9808 57.5932 30.1713C57.4027 30.3617 57.1444 30.4688 56.875 30.4688Z" fill="black"/>
</svg>
