<svg width="28" height="28" viewBox="0 0 28 28" fill="none" xmlns="http://www.w3.org/2000/svg">
<g clip-path="url(#clip0_165_96)">
<path d="M14 25.2233C13.8281 25.2228 13.6613 25.1654 13.5256 25.06C9.20111 21.7 6.22222 18.8067 4.13778 15.9522C1.47778 12.3045 0.871109 8.93667 2.33333 5.94223C3.37555 3.80334 6.37 2.05334 9.87 3.07223C11.5388 3.55425 12.9947 4.58795 14 6.00445C15.0053 4.58795 16.4612 3.55425 18.13 3.07223C21.6222 2.0689 24.6244 3.80334 25.6667 5.94223C27.1289 8.93667 26.5222 12.3045 23.8622 15.9522C21.7778 18.8067 18.7989 21.7 14.4744 25.06C14.3387 25.1654 14.1718 25.2228 14 25.2233ZM7.87889 4.34001C7.04608 4.30759 6.22018 4.5026 5.48982 4.90409C4.75947 5.30558 4.15224 5.89839 3.73333 6.6189C2.52778 9.09223 3.07222 11.8456 5.39778 15.0267C7.86922 18.2145 10.7632 21.0509 14 23.4578C17.2363 21.0533 20.1302 18.2195 22.6022 15.0345C24.9356 11.8456 25.4722 9.09223 24.2667 6.62667C23.4889 5.07112 21.1556 3.83445 18.5578 4.56556C17.7248 4.81173 16.9526 5.22956 16.2909 5.79218C15.6291 6.35479 15.0925 7.04971 14.7156 7.83223C14.657 7.97488 14.5573 8.09689 14.4292 8.18276C14.3011 8.26863 14.1503 8.31448 13.9961 8.31448C13.8419 8.31448 13.6912 8.26863 13.5631 8.18276C13.4349 8.09689 13.3353 7.97488 13.2767 7.83223C12.9025 7.04776 12.3668 6.35121 11.7047 5.78824C11.0425 5.22528 10.2689 4.80862 9.43444 4.56556C8.92887 4.41872 8.40535 4.34281 7.87889 4.34001Z" fill="black"/>
</g>
<defs>
<clipPath id="clip0_165_96">
<rect width="28" height="28" fill="white"/>
</clipPath>
</defs>
</svg>
