<svg width="65" height="65" viewBox="0 0 65 65" fill="none" xmlns="http://www.w3.org/2000/svg">
<path d="M32.5 2.03125C15.7016 2.03125 2.03125 15.7016 2.03125 32.5C2.03125 49.2984 15.7016 62.9688 32.5 62.9688C49.2984 62.9688 62.9688 49.2984 62.9688 32.5C62.9688 15.7016 49.2984 2.03125 32.5 2.03125ZM32.5 60.9375C16.8188 60.9375 4.0625 48.1812 4.0625 32.5C4.0625 16.8188 16.8188 4.0625 32.5 4.0625C48.1812 4.0625 60.9375 16.8188 60.9375 32.5C60.9375 48.1812 48.1812 60.9375 32.5 60.9375Z" fill="black"/>
<path d="M14.6047 18.2812C12.1469 18.2812 10.1562 20.282 10.1562 22.7297V42.2602C10.1562 44.718 12.157 46.7086 14.6047 46.7086H50.3953C52.8531 46.7086 54.8438 44.7078 54.8438 42.2602V22.7297C54.8438 20.2719 52.843 18.2812 50.3953 18.2812H14.6047ZM52.8125 42.2703C52.8125 43.6008 51.7258 44.6875 50.3953 44.6875H14.6047C13.2742 44.6875 12.1875 43.6008 12.1875 42.2703V26.4062H52.8125V42.2703ZM52.8125 22.7398V24.3852H12.1875V22.7398C12.1875 21.4094 13.2742 20.3227 14.6047 20.3227H50.3953C51.7258 20.3227 52.8125 21.4094 52.8125 22.7398Z" fill="black"/>
<path d="M45.7031 30.4688H17.2656C16.7047 30.4688 16.25 30.9235 16.25 31.4844C16.25 32.0453 16.7047 32.5 17.2656 32.5H45.7031C46.264 32.5 46.7188 32.0453 46.7188 31.4844C46.7188 30.9235 46.264 30.4688 45.7031 30.4688Z" fill="black"/>
<path d="M44.6164 36.5626C44.3219 36.5829 44.0578 36.7352 43.875 36.9688L41.6406 39.9446L39.4062 36.9688C39.2336 36.7352 38.9594 36.5829 38.6648 36.5626C38.3602 36.5423 38.0859 36.6438 37.8727 36.8571L34.5312 40.1985C34.1352 40.5946 34.1352 41.2344 34.5312 41.6305C34.9273 42.0266 35.5672 42.0266 35.9633 41.6305L38.482 39.1118L40.8281 42.2399C41.0211 42.4938 41.3258 42.6462 41.6406 42.6462C41.9555 42.6462 42.2602 42.4938 42.4531 42.2399L44.7992 39.1118L47.318 41.6305C47.7141 42.0266 48.3539 42.0266 48.75 41.6305C49.1461 41.2344 49.1461 40.5946 48.75 40.1985L45.4086 36.8571C45.1953 36.6438 44.9211 36.5321 44.6164 36.5626Z" fill="black"/>
</svg>
