<svg width="65" height="65" viewBox="0 0 65 65" fill="none" xmlns="http://www.w3.org/2000/svg">
<path d="M11.1719 50.7812H8.125C7.04756 50.7812 6.01425 50.3532 5.25238 49.5914C4.49051 48.8295 4.0625 47.7962 4.0625 46.7188V38.5938C4.0625 37.5163 4.49051 36.483 5.25238 35.7211C6.01425 34.9593 7.04756 34.5312 8.125 34.5312H11.1719C11.4412 34.5312 11.6996 34.6383 11.89 34.8287C12.0805 35.0192 12.1875 35.2775 12.1875 35.5469V49.7656C12.1875 50.035 12.0805 50.2933 11.89 50.4838C11.6996 50.6742 11.4412 50.7812 11.1719 50.7812ZM8.125 36.5625C7.58628 36.5625 7.06962 36.7765 6.68869 37.1574C6.30776 37.5384 6.09375 38.055 6.09375 38.5938V46.7188C6.09375 47.2575 6.30776 47.7741 6.68869 48.1551C7.06962 48.536 7.58628 48.75 8.125 48.75H10.1562V36.5625H8.125Z" fill="black"/>
<path d="M14.2188 53.8281C13.1413 53.8281 12.108 53.4001 11.3461 52.6382C10.5843 51.8764 10.1563 50.8431 10.1562 49.7656V35.5469C10.1562 34.4694 10.5843 33.4361 11.3461 32.6743C12.108 31.9124 13.1413 31.4844 14.2188 31.4844C15.2962 31.4844 16.3295 31.9124 17.0914 32.6743C17.8532 33.4361 18.2812 34.4694 18.2812 35.5469V49.7656C18.2812 50.8431 17.8532 51.8764 17.0914 52.6382C16.3295 53.4001 15.2962 53.8281 14.2188 53.8281ZM14.2188 33.5156C13.68 33.5156 13.1634 33.7296 12.7824 34.1106C12.4015 34.4915 12.1875 35.0082 12.1875 35.5469V49.7656C12.1875 50.3043 12.4015 50.821 12.7824 51.2019C13.1634 51.5829 13.68 51.7969 14.2188 51.7969C14.7575 51.7969 15.2741 51.5829 15.6551 51.2019C16.036 50.821 16.25 50.3043 16.25 49.7656V35.5469C16.25 35.0082 16.036 34.4915 15.6551 34.1106C15.2741 33.7296 14.7575 33.5156 14.2188 33.5156ZM56.875 50.7812H53.8281C53.5588 50.7812 53.3004 50.6742 53.11 50.4838C52.9195 50.2933 52.8125 50.035 52.8125 49.7656V35.5469C52.8125 35.2775 52.9195 35.0192 53.11 34.8287C53.3004 34.6383 53.5588 34.5312 53.8281 34.5312H56.875C57.9524 34.5312 58.9858 34.9593 59.7476 35.7211C60.5095 36.483 60.9375 37.5163 60.9375 38.5938V46.7188C60.9375 47.7962 60.5095 48.8295 59.7476 49.5914C58.9858 50.3532 57.9524 50.7812 56.875 50.7812ZM54.8438 48.75H56.875C57.4137 48.75 57.9304 48.536 58.3113 48.1551C58.6922 47.7741 58.9062 47.2575 58.9062 46.7188V38.5938C58.9062 38.055 58.6922 37.5384 58.3113 37.1574C57.9304 36.7765 57.4137 36.5625 56.875 36.5625H54.8438V48.75Z" fill="black"/>
<path d="M50.7812 53.8281C49.7038 53.8281 48.6705 53.4001 47.9086 52.6382C47.1468 51.8764 46.7188 50.8431 46.7188 49.7656V35.5469C46.7188 34.4694 47.1468 33.4361 47.9086 32.6743C48.6705 31.9124 49.7038 31.4844 50.7812 31.4844C51.8587 31.4844 52.892 31.9124 53.6539 32.6743C54.4157 33.4361 54.8438 34.4694 54.8438 35.5469V49.7656C54.8438 50.8431 54.4157 51.8764 53.6539 52.6382C52.892 53.4001 51.8587 53.8281 50.7812 53.8281ZM50.7812 33.5156C50.2425 33.5156 49.7259 33.7296 49.3449 34.1106C48.964 34.4915 48.75 35.0082 48.75 35.5469V49.7656C48.75 50.3043 48.964 50.821 49.3449 51.2019C49.7259 51.5829 50.2425 51.7969 50.7812 51.7969C51.32 51.7969 51.8366 51.5829 52.2176 51.2019C52.5985 50.821 52.8125 50.3043 52.8125 49.7656V35.5469C52.8125 35.0082 52.5985 34.4915 52.2176 34.1106C51.8366 33.7296 51.32 33.5156 50.7812 33.5156ZM34.5312 60.9375H30.4688C29.6607 60.9375 28.8857 60.6165 28.3143 60.0451C27.7429 59.4737 27.4219 58.6987 27.4219 57.8906C27.4219 57.0825 27.7429 56.3076 28.3143 55.7362C28.8857 55.1648 29.6607 54.8438 30.4688 54.8438H34.5312C35.3393 54.8438 36.1143 55.1648 36.6857 55.7362C37.2571 56.3076 37.5781 57.0825 37.5781 57.8906C37.5781 58.6987 37.2571 59.4737 36.6857 60.0451C36.1143 60.6165 35.3393 60.9375 34.5312 60.9375ZM30.4688 56.875C30.1994 56.875 29.9411 56.982 29.7506 57.1725C29.5601 57.3629 29.4531 57.6213 29.4531 57.8906C29.4531 58.16 29.5601 58.4183 29.7506 58.6088C29.9411 58.7992 30.1994 58.9062 30.4688 58.9062H34.5312C34.8006 58.9062 35.0589 58.7992 35.2494 58.6088C35.4399 58.4183 35.5469 58.16 35.5469 57.8906C35.5469 57.6213 35.4399 57.3629 35.2494 57.1725C35.0589 56.982 34.8006 56.875 34.5312 56.875H30.4688Z" fill="black"/>
<path d="M50.7812 58.9062H36.5625C36.2931 58.9062 36.0348 58.7992 35.8443 58.6088C35.6539 58.4183 35.5469 58.16 35.5469 57.8906C35.5469 57.6213 35.6539 57.3629 35.8443 57.1725C36.0348 56.982 36.2931 56.875 36.5625 56.875H50.7812C52.1281 56.875 53.4197 56.34 54.372 55.3877C55.3244 54.4353 55.8594 53.1437 55.8594 51.7969V49.7656C55.8594 49.4963 55.9664 49.2379 56.1568 49.0475C56.3473 48.857 56.6056 48.75 56.875 48.75C57.1444 48.75 57.4027 48.857 57.5932 49.0475C57.7836 49.2379 57.8906 49.4963 57.8906 49.7656V51.7969C57.8906 53.6824 57.1416 55.4907 55.8083 56.824C54.4751 58.1572 52.6668 58.9062 50.7812 58.9062ZM55.8594 36.5625C55.59 36.5625 55.3317 36.4555 55.1412 36.265C54.9508 36.0746 54.8438 35.8162 54.8438 35.5469V28.4375C54.8449 27.4627 54.7804 26.4888 54.6508 25.5227C54.6334 25.3893 54.6425 25.2538 54.6776 25.1239C54.7126 24.9941 54.7728 24.8724 54.8549 24.7658C54.9369 24.6593 55.0392 24.5699 55.1558 24.5028C55.2724 24.4358 55.401 24.3923 55.5344 24.375C55.6677 24.3577 55.8032 24.3668 55.9331 24.4018C56.0629 24.4368 56.1846 24.4971 56.2912 24.5791C56.3978 24.6612 56.4871 24.7634 56.5542 24.88C56.6213 24.9966 56.6647 25.1252 56.682 25.2586C56.817 26.3128 56.8815 27.3748 56.875 28.4375V35.5469C56.875 35.8162 56.768 36.0746 56.5775 36.265C56.3871 36.4555 56.1287 36.5625 55.8594 36.5625ZM9.14062 36.5625C8.87126 36.5625 8.61294 36.4555 8.42247 36.265C8.232 36.0746 8.125 35.8162 8.125 35.5469V28.4375C8.12524 27.3743 8.19649 26.3123 8.33828 25.2586C8.35562 25.1252 8.39906 24.9966 8.46612 24.88C8.53318 24.7634 8.62254 24.6612 8.72911 24.5791C8.83568 24.4971 8.95737 24.4368 9.08722 24.4018C9.21708 24.3668 9.35256 24.3577 9.48594 24.375C9.61931 24.3923 9.74796 24.4358 9.86455 24.5028C9.98114 24.5699 10.0834 24.6593 10.1654 24.7658C10.2475 24.8724 10.3077 24.9941 10.3427 25.1239C10.3778 25.2538 10.3869 25.3893 10.3695 25.5227C10.2331 26.4884 10.1618 27.4622 10.1562 28.4375V35.5469C10.1562 35.8162 10.0492 36.0746 9.85878 36.265C9.66831 36.4555 9.40999 36.5625 9.14062 36.5625Z" fill="black"/>
<path d="M55.6563 26.4063C54.0856 26.3839 52.5552 25.9067 51.2501 25.0325C49.9451 24.1582 48.9215 22.9245 48.3031 21.4805C46.9456 18.4006 44.7175 15.7847 41.8929 13.9544C39.0682 12.1242 35.7702 11.1594 32.4045 11.1789C29.0388 11.1983 25.7521 12.201 22.9488 14.0638C20.1454 15.9265 17.9477 18.568 16.6258 21.6633C16.0555 23.0526 15.0887 24.2433 13.8461 25.0868C12.6035 25.9302 11.14 26.3891 9.63828 26.4063H9.34375C9.1985 26.4075 9.05468 26.3776 8.92199 26.3185C8.78929 26.2594 8.67082 26.1725 8.57456 26.0638C8.47829 25.955 8.40648 25.8268 8.36397 25.6879C8.32146 25.549 8.30924 25.4026 8.32813 25.2586C9.10788 19.403 11.9876 14.0297 16.4319 10.1381C20.8762 6.24637 26.5825 4.10107 32.4898 4.10107C38.3972 4.10107 44.1035 6.24637 48.5478 10.1381C52.9921 14.0297 55.8718 19.403 56.6516 25.2586C56.6705 25.4026 56.6582 25.549 56.6157 25.6879C56.5732 25.8268 56.5014 25.955 56.4051 26.0638C56.3089 26.1725 56.1904 26.2594 56.0577 26.3185C55.925 26.3776 55.7812 26.4075 55.6359 26.4063H55.6563ZM32.5 6.09378C27.2927 6.09339 22.2488 7.91179 18.2397 11.2348C14.2305 14.5579 11.5079 19.1768 10.5422 24.2938C11.4751 24.118 12.3493 23.7119 13.0854 23.1124C13.8215 22.5129 14.3961 21.739 14.757 20.861C15.9934 17.9566 17.9234 15.3998 20.3779 13.4149C22.8323 11.4299 25.7362 10.0774 28.835 9.47593C31.9338 8.87442 35.1328 9.04228 38.1516 9.96479C41.1704 10.8873 43.9168 12.5363 46.15 14.7672C47.8544 16.4569 49.2317 18.4471 50.2125 20.6375C50.5955 21.5295 51.183 22.3189 51.9275 22.9417C52.6721 23.5645 53.5528 24.0033 54.4984 24.2227C53.6483 19.8297 51.5051 15.7909 48.3438 12.6243C46.2683 10.5389 43.7985 8.88756 41.0783 7.76637C38.3582 6.64518 35.4421 6.07661 32.5 6.09378Z" fill="black"/>
<path d="M30.4688 32.5H25.3906C25.1213 32.5 24.8629 32.393 24.6725 32.2025C24.482 32.0121 24.375 31.7537 24.375 31.4844V30.4688C24.3742 30.3351 24.3998 30.2026 24.4504 30.0788C24.5009 29.9551 24.5754 29.8426 24.6695 29.7477L29.118 25.2992C29.2763 25.1402 29.384 24.9378 29.4275 24.7177C29.4711 24.4976 29.4486 24.2695 29.3628 24.0621C29.277 23.8547 29.1318 23.6774 28.9455 23.5523C28.7592 23.4273 28.54 23.3602 28.3156 23.3594H27.5438C27.2421 23.3594 26.9527 23.4792 26.7394 23.6925C26.5261 23.9059 26.4062 24.1952 26.4062 24.4969V25.3906C26.4062 25.66 26.2992 25.9183 26.1088 26.1088C25.9183 26.2992 25.66 26.4062 25.3906 26.4062C25.1213 26.4062 24.8629 26.2992 24.6725 26.1088C24.482 25.9183 24.375 25.66 24.375 25.3906V24.4969C24.375 24.0807 24.457 23.6687 24.6162 23.2842C24.7755 22.8998 25.0089 22.5505 25.3031 22.2562C25.5973 21.962 25.9467 21.7286 26.3311 21.5693C26.7156 21.4101 27.1276 21.3281 27.5438 21.3281H28.3156C29.156 21.3281 29.962 21.662 30.5563 22.2562C31.1505 22.8505 31.4844 23.6565 31.4844 24.4969C31.4871 24.9136 31.4067 25.3267 31.2481 25.7121C31.0894 26.0975 30.8555 26.4474 30.5602 26.7414L26.8227 30.4688H30.4688C30.7381 30.4688 30.9964 30.5758 31.1869 30.7662C31.3774 30.9567 31.4844 31.215 31.4844 31.4844C31.4844 31.7537 31.3774 32.0121 31.1869 32.2025C30.9964 32.393 30.7381 32.5 30.4688 32.5ZM39.6094 28.4375H37.5781C36.5007 28.4375 35.4674 28.0095 34.7055 27.2476C33.9436 26.4858 33.5156 25.4524 33.5156 24.375V22.3438C33.5156 22.0744 33.6226 21.8161 33.8131 21.6256C34.0036 21.4351 34.2619 21.3281 34.5312 21.3281C34.8006 21.3281 35.0589 21.4351 35.2494 21.6256C35.4399 21.8161 35.5469 22.0744 35.5469 22.3438V24.375C35.5469 24.9137 35.7609 25.4304 36.1418 25.8113C36.5227 26.1922 37.0394 26.4062 37.5781 26.4062H38.5938V22.3438C38.5938 22.0744 38.7008 21.8161 38.8912 21.6256C39.0817 21.4351 39.34 21.3281 39.6094 21.3281C39.8787 21.3281 40.1371 21.4351 40.3275 21.6256C40.518 21.8161 40.625 22.0744 40.625 22.3438V27.4219C40.625 27.6912 40.518 27.9496 40.3275 28.14C40.1371 28.3305 39.8787 28.4375 39.6094 28.4375Z" fill="black"/>
<path d="M39.6094 32.5C39.34 32.5 39.0817 32.393 38.8912 32.2025C38.7008 32.0121 38.5938 31.7537 38.5938 31.4844V27.4219C38.5938 27.1525 38.7008 26.8942 38.8912 26.7037C39.0817 26.5133 39.34 26.4062 39.6094 26.4062C39.8787 26.4062 40.1371 26.5133 40.3275 26.7037C40.518 26.8942 40.625 27.1525 40.625 27.4219V31.4844C40.625 31.7537 40.518 32.0121 40.3275 32.2025C40.1371 32.393 39.8787 32.5 39.6094 32.5Z" fill="black"/>
<path d="M32.5 40.625C29.8887 40.625 27.336 39.8507 25.1647 38.3999C22.9935 36.9491 21.3012 34.8871 20.3019 32.4745C19.3026 30.0619 19.0411 27.4072 19.5506 24.8461C20.06 22.2849 21.3175 19.9324 23.164 18.0859C25.0105 16.2394 27.363 14.9819 29.9242 14.4725C32.4854 13.963 35.1401 14.2245 37.5526 15.2238C39.9652 16.2231 42.0272 17.9154 43.478 20.0866C44.9288 22.2579 45.7031 24.8105 45.7031 27.4219C45.7031 27.6912 45.5961 27.9496 45.4057 28.14C45.2152 28.3305 44.9569 28.4375 44.6875 28.4375C44.4181 28.4375 44.1598 28.3305 43.9693 28.14C43.7789 27.9496 43.6719 27.6912 43.6719 27.4219C43.6719 25.2123 43.0167 23.0523 41.7891 21.2151C40.5615 19.3779 38.8167 17.946 36.7753 17.1004C34.7339 16.2548 32.4876 16.0336 30.3205 16.4647C28.1533 16.8957 26.1627 17.9598 24.6003 19.5222C23.0379 21.0846 21.9739 23.0752 21.5428 25.2424C21.1117 27.4095 21.333 29.6558 22.1785 31.6972C23.0241 33.7386 24.456 35.4834 26.2932 36.711C28.1304 37.9385 30.2904 38.5938 32.5 38.5938C32.7694 38.5938 33.0277 38.7008 33.2182 38.8912C33.4086 39.0817 33.5156 39.34 33.5156 39.6094C33.5156 39.8787 33.4086 40.1371 33.2182 40.3275C33.0277 40.518 32.7694 40.625 32.5 40.625Z" fill="black"/>
<path d="M31.4844 43.6719C31.3507 43.6727 31.2182 43.647 31.0945 43.5965C30.9707 43.5459 30.8582 43.4715 30.7633 43.3773C30.6681 43.2829 30.5925 43.1706 30.541 43.0468C30.4894 42.9231 30.4629 42.7903 30.4629 42.6563C30.4629 42.5222 30.4894 42.3894 30.541 42.2657C30.5925 42.1419 30.6681 42.0296 30.7633 41.9352L33.0992 39.6094L30.7633 37.2836C30.572 37.0924 30.4646 36.833 30.4646 36.5625C30.4646 36.292 30.572 36.0327 30.7633 35.8414C30.9545 35.6502 31.2139 35.5427 31.4844 35.5427C31.7548 35.5427 32.0142 35.6502 32.2055 35.8414L35.2523 38.8883C35.3475 38.9827 35.4231 39.095 35.4747 39.2188C35.5262 39.3426 35.5528 39.4753 35.5528 39.6094C35.5528 39.7435 35.5262 39.8762 35.4747 40C35.4231 40.1237 35.3475 40.2361 35.2523 40.3305L32.2055 43.3773C32.1106 43.4715 31.998 43.5459 31.8743 43.5965C31.7505 43.647 31.618 43.6727 31.4844 43.6719Z" fill="black"/>
</svg>
