<svg width="8" height="12" viewBox="0 0 8 12" fill="none" xmlns="http://www.w3.org/2000/svg">
<path fill-rule="evenodd" clip-rule="evenodd" d="M7.73345 0.17549C7.4389 -0.0584974 6.96255 -0.0584974 6.66874 0.17549L0.441212 5.13364C0.301811 5.24293 0.190811 5.37447 0.114963 5.52026C0.0391135 5.66605 0 5.82305 0 5.9817C0 6.14035 0.0391135 6.29734 0.114963 6.44313C0.190811 6.58892 0.301811 6.72046 0.441212 6.82976L6.71383 11.8245C6.85619 11.9361 7.04471 11.9989 7.24111 12C7.43751 12.0011 7.62706 11.9405 7.77126 11.8305C7.8427 11.7762 7.89986 11.7103 7.9392 11.6371C7.97854 11.5638 7.99923 11.4846 7.99998 11.4045C8.00073 11.3243 7.98153 11.2449 7.94356 11.1711C7.9056 11.0973 7.84967 11.0308 7.77926 10.9755L2.03827 6.40558C1.96852 6.35093 1.91297 6.28514 1.87501 6.21222C1.83705 6.13929 1.81748 6.06076 1.81748 5.9814C1.81748 5.90204 1.83705 5.8235 1.87501 5.75058C1.91297 5.67766 1.96852 5.61187 2.03827 5.55722L7.73345 1.02325C7.80318 0.968651 7.85872 0.902913 7.89667 0.83004C7.93462 0.757167 7.95419 0.678683 7.95419 0.59937C7.95419 0.520056 7.93462 0.441571 7.89667 0.368698C7.85872 0.295825 7.80318 0.230088 7.73345 0.17549Z" fill="#314154" fill-opacity="0.93"/>
</svg>
