<svg width="19" height="20" viewBox="0 0 19 20" fill="none" xmlns="http://www.w3.org/2000/svg">
<path d="M9.10312 0.769226C10.2932 0.768866 11.452 1.14588 12.4096 1.84492C13.3671 2.54397 14.0729 3.52824 14.4233 4.65326C14.7738 5.77828 14.7505 6.9848 14.3568 8.09574C13.9631 9.20668 13.2197 10.1635 12.2359 10.8258C13.9436 11.4454 15.4247 12.5564 16.4887 14.0158C17.5526 15.4752 18.1507 17.2162 18.2059 19.0147C18.2111 19.1145 18.196 19.2143 18.1616 19.3083C18.1273 19.4023 18.0743 19.4886 18.0058 19.5621C17.9372 19.6355 17.8546 19.6947 17.7626 19.7362C17.6707 19.7776 17.5713 19.8004 17.4703 19.8034C17.3693 19.8063 17.2687 19.7893 17.1744 19.7532C17.0802 19.7172 17.0383 19.4593 16.9655 19.3899C16.8928 19.3205 17.0054 19.4818 16.9655 19.3899C16.9655 19.3899 16.9221 19.1136 16.9214 19.0137C16.8611 17.0632 16.3125 15.3739 14.8966 14.0154C13.4806 12.6568 11.0762 11.7809 9.10363 11.7809C7.13104 11.7809 4.72632 12.6572 3.31035 14.0158C1.89437 15.3744 1.34003 17.1083 1.27977 19.0587C1.27977 19.0587 1.21388 19.4145 1.06728 19.5511C0.920693 19.6877 0.937751 19.7929 0.736477 19.7869C0.535204 19.7809 0.344573 19.6961 0.206521 19.5511C0.0684684 19.4061 -0.00569638 19.2128 0.000341821 19.0137C0.0557398 17.2153 0.653903 15.4746 1.71785 14.0154C2.7818 12.5562 4.26284 11.4454 5.97038 10.8258C4.98652 10.1635 4.24319 9.20668 3.8495 8.09574C3.4558 6.9848 3.43247 5.77828 3.78292 4.65326C4.13338 3.52824 4.83917 2.54397 5.7967 1.84492C6.75423 1.14588 7.91306 0.768866 9.10312 0.769226ZM4.55172 6.27449C4.55172 7.33637 5.03765 8.29422 5.7967 9.04509C6.55575 9.79595 8.02999 10.7003 9.10345 10.7003C10.1769 10.7003 11.4768 10.2097 12.2359 9.45888C12.9949 8.70802 13.6552 7.33637 13.6552 6.27449C13.6552 5.21261 13.1728 4.00285 12.4138 3.25198C11.6547 2.50112 10.1766 1.84492 9.10312 1.84492C8.02967 1.84492 6.72943 2.50112 5.97038 3.25198C5.21133 4.00285 4.55172 5.21261 4.55172 6.27449Z" fill="black"/>
</svg>
